<svg width="24" height="24" viewBox="0 0 24 24" fill="none" xmlns="http://www.w3.org/2000/svg">
<rect width="24" height="24" rx="12" fill="#244B8A"/>
<path d="M12 17C11.5398 17 11.1667 16.6269 11.1667 16.1667C11.1667 14.3257 9.67428 12.8333 7.83333 12.8333C7.53561 12.8333 7.26051 12.6745 7.11165 12.4167C6.96278 12.1588 6.96278 11.8412 7.11165 11.5833C7.26051 11.3255 7.53561 11.1667 7.83333 11.1667C9.67428 11.1667 11.1667 9.67428 11.1667 7.83333C11.1667 7.3731 11.5398 7 12 7C12.4602 7 12.8333 7.3731 12.8333 7.83333C12.8333 9.67428 14.3257 11.1667 16.1667 11.1667C16.6269 11.1667 17 11.5398 17 12C17 12.4602 16.6269 12.8333 16.1667 12.8333C14.3257 12.8333 12.8333 14.3257 12.8333 16.1667C12.8333 16.6269 12.4602 17 12 17Z" fill="white"/>
</svg>
