<svg width="180" height="180" viewBox="0 0 180 180" fill="none" xmlns="http://www.w3.org/2000/svg">
<g id="5202351_2678136 1">
<g id="Background_2">
<g id="Group">
<g id="Group_2">
<g id="Group_3">
<g id="Group_4">
<path id="Vector" d="M180 137.663H0V137.753H180V137.663Z" fill="#D1E3FF"/>
<path id="Vector_2" d="M28.1581 141.683H18.5925V141.773H28.1581V141.683Z" fill="#D1E3FF"/>
<path id="Vector_3" d="M31.6202 139.883H23.3755V139.973H31.6202V139.883Z" fill="#D1E3FF"/>
<path id="Vector_4" d="M117.147 140.148H95.0264V140.238H117.147V140.148Z" fill="#D1E3FF"/>
<path id="Vector_5" d="M124.527 140.148H119.22V140.238H124.527V140.148Z" fill="#D1E3FF"/>
<path id="Vector_6" d="M154.698 140.762H137.182V140.852H154.698V140.762Z" fill="#D1E3FF"/>
<path id="Vector_7" d="M69.5402 142.2H38.3538V142.29H69.5402V142.2Z" fill="#D1E3FF"/>
<path id="Vector_8" d="M160.411 140.762H157.86V140.852H160.411V140.762Z" fill="#D1E3FF"/>
<path id="Vector_9" d="M85.3251 121.608H15.8095C14.6766 121.608 13.7546 120.686 13.7546 119.553V21.8376C13.7546 20.7047 14.6766 19.7827 15.8095 19.7827H85.3251C86.4577 19.7827 87.3797 20.7047 87.3797 21.8376V119.553C87.3797 120.686 86.4577 121.608 85.3251 121.608ZM15.8095 19.8731C14.7259 19.8731 13.8446 20.7544 13.8446 21.838V119.553C13.8446 120.637 14.7259 121.518 15.8095 121.518H85.3251C86.4084 121.518 87.2897 120.637 87.2897 119.553V21.8376C87.2897 20.7544 86.4084 19.8727 85.3251 19.8727L15.8095 19.8731Z" fill="#D1E3FF"/>
<path id="Vector_10" d="M163.192 121.608H93.6763C92.5438 121.608 91.6218 120.686 91.6218 119.553V21.8376C91.6218 20.7047 92.5438 19.7827 93.6763 19.7827H163.192C164.325 19.7827 165.246 20.7047 165.246 21.8376V119.553C165.247 120.686 164.325 121.608 163.192 121.608ZM93.6763 19.8731C92.5931 19.8731 91.7118 20.7544 91.7118 21.838V119.553C91.7118 120.637 92.5931 121.518 93.6763 121.518H163.192C164.275 121.518 165.156 120.637 165.156 119.553V21.8376C165.156 20.7544 164.275 19.8727 163.192 19.8727L93.6763 19.8731Z" fill="#D1E3FF"/>
</g>
</g>
</g>
<g id="Group_5">
<path id="Vector_11" d="M55.2379 75.7486C56.2401 71.4 53.5274 67.0623 49.1788 66.06C44.8302 65.0578 40.4925 67.7705 39.4903 72.1191C38.488 76.4677 41.2008 80.8054 45.5493 81.8077C49.8979 82.8099 54.2356 80.0972 55.2379 75.7486Z" fill="#E3EEFF"/>
<path id="Vector_12" d="M102.451 72.2663C101.443 70.0901 102.243 68.5406 104.705 68.5406C106.249 68.5406 108.163 69.1505 110.027 70.1434C110.238 69.5774 110.831 69.238 111.785 69.238C113.465 69.238 115.78 70.2859 117.596 71.7648C118.035 71.435 118.671 71.2331 119.488 71.2007C121.095 71.1341 123.042 71.7364 124.735 72.7156C124.881 72.5518 125.133 72.4488 125.479 72.4337C126.406 72.3955 127.659 73.0036 128.282 73.7905C128.321 73.8402 128.355 73.8877 128.39 73.9352H126.466H124.935H119.619H117.002H114.968H111.834H111.266H103.492H101.2C100.341 73.1645 101.29 72.3052 102.451 72.2663Z" fill="#F3F8FF"/>
<g id="Group_6">
<path id="Vector_13" d="M49.4797 88.9822L71.7562 83.8799V137.663H49.4797V88.9822Z" fill="#F3F8FF"/>
<path id="Vector_14" d="M83.3171 83.8799H71.7561V137.663H83.3171V83.8799Z" fill="#E7E7E7"/>
<g id="Group_7">
<path id="Vector_15" d="M79.5391 137.663H98.4993L98.4993 71.0169H79.5391V137.663Z" fill="#F3F8FF"/>
<path id="Vector_16" d="M108.339 71.0167H98.4993V137.663H108.339V71.0167Z" fill="#E7E7E7"/>
<path id="Vector_17" d="M82.0902 71.0167H98.499V66.0649H82.0902V71.0167Z" fill="#F3F8FF"/>
<path id="Vector_18" d="M82.0902 71.0168H98.499V69.9048H82.0902V71.0168Z" fill="#E7E7E7"/>
<path id="Vector_19" d="M105.788 66.0649H98.4993V71.0167H105.788V66.0649Z" fill="#E7E7E7"/>
<path id="Vector_20" d="M84.6418 66.0651H98.4993V61.1133H84.6418V66.0651Z" fill="#F3F8FF"/>
<path id="Vector_21" d="M84.6418 66.0649H98.4993V64.9529H84.6418V66.0649Z" fill="#E3EEFF"/>
<path id="Vector_22" d="M103.237 61.1128H98.4993V66.0646H103.237V61.1128Z" fill="#E3EEFF"/>
<path id="Vector_23" d="M94.3992 54.1925H93.479V61.1128H94.3992V54.1925Z" fill="#E3EEFF"/>
</g>
<path id="Vector_24" d="M105.198 137.663H119.043V79.68H105.198V137.663Z" fill="#F3F8FF"/>
<path id="Vector_25" d="M126.229 79.6798H119.043V137.663H126.229V79.6798Z" fill="#E7E7E7"/>
<path id="Vector_26" d="M122.636 91.4399L133.136 100.44V137.663H122.636V91.4399Z" fill="#F3F8FF"/>
<path id="Vector_27" d="M138.585 100.44H133.136V137.663H138.585V100.44Z" fill="#E7E7E7"/>
<path id="Vector_28" d="M138.585 100.44H133.136L122.636 91.4399H128.085L138.585 100.44Z" fill="#E7E7E7"/>
</g>
<g id="Group_8">
<path id="Vector_29" d="M158.365 137.663C158.365 137.663 158.629 135.065 161.499 133.728C160.322 135.611 160.579 137.663 160.579 137.663H158.365Z" fill="#E3EEFF"/>
<g id="Group_9">
<path id="Vector_30" d="M67.067 137.663C67.067 137.663 66.8031 135.065 63.9329 133.728C65.1093 135.611 64.853 137.663 64.853 137.663H67.067Z" fill="#E3EEFF"/>
<path id="Vector_31" d="M21.1943 137.663C21.1943 137.663 21.0172 133.055 19.0908 131.718C19.8807 133.601 19.7082 137.663 19.7082 137.663H21.1943Z" fill="#E3EEFF"/>
<path id="Vector_32" d="M20.4709 137.663C20.4709 137.663 20.6481 135.018 22.5744 134.25C21.7846 135.331 21.957 137.663 21.957 137.663H20.4709Z" fill="#E3EEFF"/>
<path id="Vector_33" d="M68.7158 137.663C68.7158 137.663 68.5236 133.301 65.0298 131.718C66.5911 133.956 66.5018 137.663 66.5018 137.663H68.7158Z" fill="#E3EEFF"/>
</g>
</g>
<g id="Group_10">
<path id="Vector_34" d="M33.7236 108.29L36.266 126.218L36.5201 128.013H38.148L37.8939 126.218L35.3516 108.29H33.7236Z" fill="#E7E7E7"/>
<path id="Vector_35" d="M103.559 108.29L106.102 126.218L106.356 128.013H107.984L107.73 126.218L105.188 108.29H103.559Z" fill="#E7E7E7"/>
<path id="Vector_36" d="M44.1614 126.218L44.4159 128.013L45.7897 137.678H47.4179L46.0489 128.013L45.7947 126.218H44.1614Z" fill="#E7E7E7"/>
<path id="Vector_37" d="M114.002 126.218L114.257 128.013L115.626 137.678H117.254L115.885 128.013L115.63 126.218H114.002Z" fill="#E7E7E7"/>
<path id="Vector_38" d="M105.772 126.218L105.517 128.013L104.144 137.678H102.515L103.884 128.013L104.139 126.218H105.772Z" fill="#E7E7E7"/>
<path id="Vector_39" d="M35.9308 126.218L35.6767 128.013L34.3076 137.678H32.6797L34.0484 128.013L34.3029 126.218H35.9308Z" fill="#E7E7E7"/>
<g id="Group_11">
<path id="Vector_40" d="M31.38 110.785H106.02L104.635 105.793H29.9944L31.38 110.785Z" fill="#E7E7E7"/>
<path id="Vector_41" d="M33.0847 110.785H107.725L106.339 105.793H31.6987L33.0847 110.785Z" fill="#E7E7E7"/>
</g>
<g id="Group_12">
<path id="Vector_42" d="M32.4197 117.012H107.06L105.674 112.02H31.0337L32.4197 117.012Z" fill="#E7E7E7"/>
<path id="Vector_43" d="M34.124 117.012H108.764L107.378 112.02H32.738L34.124 117.012Z" fill="#E7E7E7"/>
</g>
<g id="Group_13">
<path id="Vector_44" d="M33.459 123.247H108.099L106.713 118.255H32.073L33.459 123.247Z" fill="#E7E7E7"/>
<path id="Vector_45" d="M35.1632 123.247H109.803L108.417 118.255H33.7776L35.1632 123.247Z" fill="#E7E7E7"/>
</g>
<path id="Vector_46" d="M116.594 126.218H42.2844V128.013H116.594V126.218Z" fill="#E7E7E7"/>
<path id="Vector_47" d="M42.2845 126.218H32.0713V128.013H42.2845V126.218Z" fill="#E7E7E7"/>
</g>
<path id="Vector_48" d="M26.4615 53.0899C25.0683 50.0792 26.1742 47.9362 29.5798 47.9362C31.7154 47.9362 34.3635 48.7796 36.9422 50.153C37.2334 49.37 38.0542 48.901 39.374 48.901C41.6971 48.901 44.8993 50.3507 47.4114 52.3966C48.0194 51.9404 48.8989 51.6611 50.0293 51.6164C52.2523 51.5243 54.9454 52.3573 57.2865 53.7124C57.4892 53.4856 57.837 53.3434 58.3168 53.3221C59.5981 53.2696 61.3322 54.1102 62.194 55.1992C62.2477 55.2676 62.2952 55.3334 62.3431 55.3993H59.682H57.5648H50.21H46.5906H43.7761H39.4413H38.6547H27.9022H24.7314C23.543 54.3323 24.8566 53.1436 26.4615 53.0899Z" fill="#F3F8FF"/>
<path id="Vector_49" d="M125.248 59.2967C125.342 59.2866 125.436 59.2815 125.532 59.2815C125.444 58.2969 125.954 57.6687 127.044 57.6687C127.83 57.6687 128.795 57.9971 129.778 58.5522C129.497 56.6413 130.398 55.3993 132.438 55.3993C134.083 55.3993 136.167 56.2071 138.225 57.5247C138.405 56.7752 139.011 56.3256 140.03 56.3256C141.819 56.3256 144.363 57.7137 146.402 59.6725C146.402 59.6725 146.402 59.675 146.404 59.6725C146.845 59.2358 147.506 58.9658 148.377 58.9226C150.08 58.8344 152.196 59.6318 154.072 60.9318C154.215 60.7122 154.475 60.5757 154.847 60.5581C155.779 60.5102 157.063 61.227 157.809 62.1864H155.634H154.161H148.493H145.839H143.475H140.118H133.776H131.304H130.425H126.906H123.749C122.949 60.7327 123.586 59.4608 125.248 59.2967Z" fill="#F3F8FF"/>
<path id="Vector_50" d="M67.959 37.5231C68.0522 37.513 68.1469 37.508 68.243 37.508C68.1548 36.5237 68.6649 35.8952 69.7546 35.8952C70.5409 35.8952 71.5053 36.2235 72.4888 36.7786C72.2077 34.8677 73.1084 33.6261 75.1482 33.6261C76.7937 33.6261 78.877 34.4339 80.9348 35.7515C81.1152 35.002 81.7214 34.5524 82.7402 34.5524C84.5298 34.5524 87.0728 35.9405 89.1118 37.8993C89.1118 37.8993 89.1126 37.9018 89.1144 37.8993C89.555 37.4626 90.2167 37.1926 91.0868 37.1498C92.791 37.0616 94.9068 37.859 96.7827 39.1589C96.9253 38.9393 97.1852 38.8029 97.5571 38.7853C98.4891 38.7374 99.7732 39.4541 100.519 40.4132H98.3448H96.8709H91.2034H88.5492H86.1858H82.8288H76.4866H74.0145H73.135H69.6164H66.4592C65.6596 38.9591 66.2965 37.6873 67.959 37.5231Z" fill="#F3F8FF"/>
<g id="Group_14">
<path id="Vector_51" d="M152.918 131.437L146.52 125.04H141.538L147.068 130.569H145.548V137.663H151.396V131.437H152.918Z" fill="#244B8A"/>
<path id="Vector_52" d="M147.936 131.437L141.538 125.04L135.141 131.437H137.528V137.662H145.547V131.437H147.936Z" fill="#244B8A"/>
</g>
</g>
</g>
</g>
<g id="Objects">
<g id="Group_15">
<path id="Vector_53" d="M90 153.922C128.55 153.922 159.8 152.097 159.8 149.846C159.8 147.594 128.55 145.769 90 145.769C51.4505 145.769 20.2 147.594 20.2 149.846C20.2 152.097 51.4505 153.922 90 153.922Z" fill="#F8F8F8"/>
<g id="Group_16">
<g id="Group_17">
<path id="Vector_54" d="M101.666 50.743V65.6542H86.7546V50.743L94.2117 43.5023L94.2884 43.579L94.9482 44.2173L101.666 50.743Z" fill="#244B8A"/>
<path id="Vector_55" d="M101.667 65.655H112.541V52.4646H101.667V65.655Z" fill="#244B8A"/>
<path id="Vector_56" d="M106.844 54.8154H101.682L100.945 54.0788L94.9482 42.9192L106.844 54.8154Z" fill="#244B8A"/>
<path id="Vector_57" d="M94.9482 42.9192V48.0812L88.2144 54.8154H86.7546V51.1128L94.2884 43.5791L94.9482 42.9192Z" fill="#244B8A"/>
<path id="Vector_58" d="M106.108 54.0788H100.945L94.2117 47.3447V42.1826L106.108 54.0788Z" fill="#244B8A"/>
<path id="Vector_59" d="M106.108 54.0788H115.371L103.475 42.1826H94.2117L106.108 54.0788Z" fill="#244B8A"/>
<path id="Vector_60" d="M82.3154 54.0788H87.4775L94.2116 47.3447V42.1826L82.3154 54.0788Z" fill="#244B8A"/>
</g>
<g id="Group_18">
<g id="Group_19">
<path id="Vector_61" d="M146.83 79.5621L137.235 69.967H129.763L138.057 78.26H135.777V88.8991H144.548V79.5621H146.83Z" fill="#244B8A"/>
<path id="Vector_62" d="M139.358 79.5621L129.763 69.967L120.169 79.5621H123.749V88.8984H135.776V79.5621H139.358Z" fill="#244B8A"/>
</g>
<g id="Group_20">
<path id="Vector_63" d="M143.832 38.1953L134.238 28.6002H126.766L135.059 36.8932H132.779V47.5323H141.55V38.1953H143.832Z" fill="#244B8A"/>
<path id="Vector_64" d="M136.361 38.1953L126.766 28.6002L117.171 38.1953H120.751V47.5315H132.778V38.1953H136.361Z" fill="#244B8A"/>
</g>
</g>
<g id="Group_21">
<path id="Vector_65" d="M47.5473 64.8842C47.1437 66.331 46.751 67.838 46.3769 69.3215C46.0108 70.813 45.6681 72.3088 45.366 73.8064C45.2087 74.5527 45.0734 75.317 44.9524 76.0186C44.8401 76.7372 44.7674 77.4633 44.7216 78.1945C44.6878 78.9256 44.6838 79.6615 44.7216 80.3977C44.7429 80.7652 44.7688 81.1339 44.8073 81.5C44.8437 81.8585 44.9074 82.247 44.9589 82.5587L43.5311 83.1009C43.3223 82.6761 43.1834 82.3085 43.0462 81.9061C42.909 81.5111 42.7913 81.1115 42.6952 80.7073C42.499 79.8994 42.3662 79.0754 42.2945 78.2449C42.2218 77.414 42.2225 76.5781 42.2571 75.7414C42.314 74.8911 42.4151 74.111 42.5267 73.3186C42.7539 71.7371 43.0441 70.1722 43.3929 68.6224C43.7317 67.0643 44.1212 65.5455 44.5956 63.9943L47.5473 64.8842Z" fill="#FFB573"/>
<path id="Vector_66" d="M43.714 82.8687L41.937 84.0776L42.1894 85.1101C42.1894 85.1101 45.8934 83.188 44.9031 82.4194L43.714 82.8687Z" fill="#FFB573"/>
<path id="Vector_67" d="M51.7797 146.944C51.501 146.944 51.1965 146.887 50.9837 146.836C50.956 146.83 50.9348 146.807 50.9301 146.779C50.925 146.751 50.9373 146.723 50.961 146.707C51.064 146.64 51.978 146.047 52.3308 146.207C52.3863 146.232 52.4561 146.287 52.473 146.408C52.4957 146.568 52.4558 146.695 52.3546 146.788C52.2261 146.904 52.0119 146.944 51.7797 146.944ZM51.186 146.734C51.7116 146.84 52.1058 146.821 52.2585 146.682C52.3233 146.622 52.3474 146.539 52.3316 146.428C52.3229 146.367 52.2952 146.348 52.2722 146.337C52.0889 146.253 51.5594 146.509 51.186 146.734Z" fill="#0053CC"/>
<path id="Vector_68" d="M51.0005 146.838C50.9879 146.838 50.9756 146.835 50.9645 146.829C50.9425 146.816 50.9292 146.792 50.9292 146.767C50.9292 146.73 50.9332 145.862 51.2611 145.571C51.3479 145.494 51.4494 145.462 51.5632 145.476C51.7421 145.498 51.7903 145.61 51.8033 145.675C51.8713 146.015 51.323 146.666 51.0354 146.829C51.0246 146.835 51.0127 146.838 51.0005 146.838ZM51.5135 145.616C51.4548 145.616 51.403 145.637 51.3554 145.678C51.16 145.851 51.0926 146.339 51.0761 146.628C51.3626 146.399 51.705 145.91 51.6632 145.703C51.6564 145.669 51.637 145.629 51.5459 145.618C51.5351 145.616 51.5243 145.616 51.5135 145.616Z" fill="#0053CC"/>
<path id="Vector_69" d="M70.5513 145.611C70.5264 145.611 70.503 145.598 70.4901 145.576C70.4746 145.55 70.4771 145.517 70.4965 145.494C70.5927 145.379 71.4318 144.393 71.8609 144.393C71.8703 144.393 71.8796 144.393 71.8886 144.394C71.97 144.403 72.0337 144.447 72.0733 144.523C72.1396 144.65 72.1446 144.774 72.0874 144.893C71.8984 145.29 71.0527 145.512 70.5649 145.609C70.5603 145.611 70.5556 145.611 70.5513 145.611ZM71.8566 144.535C71.6201 144.535 71.1021 145.026 70.7453 145.425C71.4048 145.271 71.8523 145.055 71.9585 144.832C71.9956 144.755 71.9916 144.675 71.9466 144.589C71.9293 144.556 71.9067 144.54 71.8732 144.536C71.8678 144.536 71.8624 144.535 71.8566 144.535Z" fill="#0053CC"/>
<path id="Vector_70" d="M70.5514 145.611C70.546 145.611 70.5409 145.611 70.5359 145.61C70.5114 145.604 70.4912 145.586 70.4833 145.562C70.4729 145.529 70.2259 144.753 70.4549 144.316C70.5251 144.182 70.632 144.093 70.7731 144.05C70.9643 143.994 71.055 144.064 71.0982 144.134C71.2807 144.428 70.8732 145.301 70.6032 145.589C70.5895 145.603 70.5708 145.611 70.5514 145.611ZM70.8991 144.172C70.8775 144.172 70.8498 144.176 70.8142 144.187C70.7098 144.218 70.6338 144.282 70.5816 144.382C70.4315 144.668 70.5251 145.156 70.5834 145.388C70.8368 145.043 71.0863 144.386 70.9769 144.209C70.97 144.199 70.9538 144.172 70.8991 144.172Z" fill="#0053CC"/>
<path id="Vector_71" d="M51.2658 53.3041C51.6168 55.0933 52.3558 58.7174 51.1038 59.9115C51.1038 59.9115 51.593 61.7266 54.9176 61.7266C58.5734 61.7266 56.6647 59.9119 56.6647 59.9119C54.6696 59.4352 54.721 57.9549 55.0684 56.5646L51.2658 53.3041Z" fill="#FFB573"/>
<path id="Vector_72" d="M56.8719 60.4965C57.3673 60.57 56.9079 59.4446 56.7034 59.3233C56.2311 59.0428 50.2299 58.4794 50.2915 59.1134C50.3257 59.3863 50.4916 59.9223 50.7598 60.111C51.0288 60.2996 52.5472 59.8017 56.8719 60.4965Z" fill="#9FC6FF"/>
<path id="Vector_73" d="M58.5287 49.4686C58.4995 49.4686 58.4704 49.4596 58.4452 49.4412C58.3815 49.3952 58.3671 49.3059 58.4135 49.2418C58.8765 48.6021 59.5363 48.6284 59.5637 48.628C59.6425 48.632 59.7034 48.6989 59.6994 48.7778C59.6955 48.8566 59.626 48.9153 59.55 48.9135C59.5259 48.912 59.0136 48.8998 58.6446 49.4096C58.6165 49.4481 58.573 49.4686 58.5287 49.4686Z" fill="#0F264C"/>
<path id="Vector_74" d="M59.3287 51.1863C59.3287 51.1863 59.7002 52.2486 60.1344 52.7714C59.8017 53.0583 59.2617 52.8999 59.2617 52.8999L59.3287 51.1863Z" fill="#FF5652"/>
<path id="Vector_75" d="M59.1273 50.76C59.1175 51.003 59.2389 51.2049 59.3976 51.2114C59.5564 51.2179 59.6928 51.0256 59.7025 50.7826C59.7123 50.5396 59.5909 50.3377 59.4322 50.3312C59.2734 50.3251 59.137 50.517 59.1273 50.76Z" fill="#0F264C"/>
<path id="Vector_76" d="M59.3618 50.342L59.9522 50.1965C59.9522 50.1965 59.6347 50.6408 59.3618 50.342Z" fill="#0F264C"/>
<path id="Vector_77" d="M67.3566 146.745L70.2946 146.065L68.9172 139.216L65.9792 139.896L67.3566 146.745Z" fill="#FFB573"/>
<path id="Vector_78" d="M47.4936 146.767H50.5093L50.2728 139.784H47.2571L47.4936 146.767Z" fill="#FFB573"/>
<path id="Vector_79" d="M50.7481 146.418H47.3605C47.2374 146.418 47.1373 146.503 47.12 146.624L46.7341 149.304C46.6942 149.582 46.9332 149.845 47.2176 149.84C48.3988 149.82 48.9679 149.751 50.4576 149.751C51.3742 149.751 52.7134 149.846 53.9788 149.846C55.2168 149.846 55.3118 148.594 54.7848 148.481C52.4218 147.973 52.0484 147.272 51.2521 146.603C51.1085 146.483 50.9285 146.418 50.7481 146.418Z" fill="#14365B"/>
<path id="Vector_80" d="M70.2355 145.293L67.1064 146.592C66.9926 146.639 66.9329 146.756 66.9631 146.874L67.6342 149.498C67.7036 149.77 68.0255 149.921 68.2861 149.808C69.3694 149.336 69.8683 149.054 71.2442 148.483C72.091 148.132 73.8784 147.493 75.0473 147.008C76.1906 146.533 75.799 145.341 75.2687 145.438C72.8912 145.874 71.7634 145.584 70.7719 145.271C70.593 145.215 70.4018 145.224 70.2355 145.293Z" fill="#14365B"/>
<g id="Group_22">
<path id="Vector_81" d="M68.9171 139.219L69.6558 142.888L66.6887 143.428L65.978 139.898L68.9171 139.219Z" fill="#EF9F5E"/>
<path id="Vector_82" d="M47.2568 139.786H50.2733L50.3939 143.385H47.3771L47.2568 139.786Z" fill="#EF9F5E"/>
</g>
<path id="Vector_83" d="M63.4243 63.6426C64.0111 65.0257 64.6461 66.4416 65.2869 67.8179C65.6098 68.508 65.9486 69.1873 66.2963 69.8551C66.6394 70.5254 66.9987 71.181 67.3774 71.8059C67.5664 72.1137 67.7572 72.4266 67.9574 72.7085L68.2508 73.1196C68.3127 73.2053 68.3818 73.2837 68.4567 73.3586C68.7501 73.6563 69.2429 73.8612 69.8564 73.9555C71.0858 74.1326 72.6241 73.8817 74.0029 73.5138L74.6451 74.8994C74.2588 75.1331 73.9024 75.3105 73.5161 75.4859C73.1353 75.6605 72.7429 75.816 72.3364 75.9463C71.5246 76.2073 70.6592 76.3956 69.7102 76.3952C69.2365 76.3949 68.7389 76.3448 68.2331 76.2026C67.7291 76.0629 67.2122 75.8315 66.7539 75.4891C66.5271 75.3159 66.3154 75.1226 66.1243 74.9109C65.9626 74.7263 65.8431 74.57 65.7005 74.3972C65.4277 74.0588 65.1893 73.7183 64.9481 73.3759C64.0215 72.0003 63.2417 70.5938 62.5289 69.1628C61.805 67.7318 61.1599 66.299 60.563 64.7935L63.4243 63.6426Z" fill="#FFB573"/>
<path id="Vector_84" d="M61.7621 60.6841C63.2608 61.0495 65.1051 65.1643 65.1051 65.1643L61.5371 69.7345C61.5371 69.7345 57.8521 64.5206 58.3446 62.9272C58.8576 61.268 59.9437 60.2405 61.7621 60.6841Z" fill="#0F264C"/>
<path id="Vector_85" d="M73.6958 75.0682L76.9844 74.5502L76.1128 72.6825C76.1128 72.6825 73.564 73.1253 73.0723 74.2784L73.6958 75.0682Z" fill="#FFB573"/>
<path id="Vector_86" d="M76.9841 73.0951L76.6223 72.2998L76.1125 72.6825L76.9841 74.5498V73.0951Z" fill="#FFB573"/>
<path id="Vector_87" d="M50.9886 49.6051C51.0548 52.597 51.0189 53.8649 52.4664 55.4561C54.6437 57.8498 58.3042 57.1139 59.1333 54.1627C59.8795 51.5059 59.6459 47.0595 56.7709 45.757C53.9385 44.4733 50.9227 46.6131 50.9886 49.6051Z" fill="#FFB573"/>
<path id="Vector_88" d="M48.578 44.2001C51.6542 41.9742 55.0883 43.2349 56.9646 44.775C58.9316 46.3896 58.6177 49.4888 57.4146 50.7715C57.4146 50.7715 57.8196 51.2993 57.6176 52.0707L57.6187 52.0783C57.9326 54.0619 56.6914 55.962 54.7484 56.4707C54.6916 56.4854 54.6347 56.4998 54.5778 56.5131C50.7384 57.4257 46.3097 54.8269 45.6296 50.94C45.2138 48.5597 45.8593 46.1675 48.578 44.2001Z" fill="#0F264C"/>
<path id="Vector_89" d="M56.7277 50.9904C56.7662 51.5718 57.0603 52.1258 57.4131 52.4923C57.9441 53.0438 58.4964 52.7245 58.5889 52.0726C58.6724 51.4858 58.4967 50.4922 57.8484 50.1782C57.2097 49.8697 56.6834 50.3258 56.7277 50.9904Z" fill="#FFB573"/>
<path id="Vector_90" d="M57.0868 78.8839C57.0868 78.8839 55.3369 99.5807 53.521 111.245C52.0544 120.666 50.8981 142.688 50.8981 142.688H46.7861C46.7861 142.688 44.8267 121.42 45.5711 112.102C47.455 88.5229 44.1509 84.3498 48.0742 78.8843H57.0868V78.8839Z" fill="#19437F"/>
<path id="Vector_91" d="M52.9141 88.5599C52.5721 94.7447 54.0603 99.415 54.7407 102.147C55.2231 98.1082 55.6659 93.8926 56.0367 90.1738C54.7731 85.9618 53.1697 83.9051 52.9141 88.5599Z" fill="#133A68"/>
<path id="Vector_92" d="M60.3212 78.8839C60.3212 78.8839 63.7196 102.104 64.9137 111.225C66.1557 120.711 69.7863 141.979 69.7863 141.979L65.7557 142.595C65.7557 142.595 59.3826 122.311 57.6071 113.08C55.6714 103.016 51.845 78.8839 51.845 78.8839H60.3212Z" fill="#19437F"/>
<path id="Vector_93" d="M70.3802 141.996L65.2167 142.873L64.6306 140.924L70.1563 139.979L70.3802 141.996Z" fill="#318FFF"/>
<path id="Vector_94" d="M51.4606 142.77H46.2233L45.9482 140.932L51.4908 140.745L51.4606 142.77Z" fill="#318FFF"/>
<path id="Vector_95" d="M43.311 65.3786L46.3386 67.7906L48.1566 69.2414C48.1566 69.2414 48.3474 68.7338 48.5778 68.0066C49.017 66.6026 49.5894 64.3778 49.1934 63.3554C48.5706 61.7354 47.3826 60.2738 45.903 60.5978C44.6502 60.8714 43.311 65.3786 43.311 65.3786Z" fill="#0F264C"/>
<path id="Vector_96" d="M46.3386 67.7905L48.1566 69.2413C48.1566 69.2413 48.3474 68.7337 48.5778 68.0065L47.4978 62.6605L46.3386 67.7905Z" fill="#0A1B35"/>
<path id="Vector_97" d="M61.7623 60.6841C61.7623 60.6841 63.1987 61.1899 60.3212 78.8839C55.4616 78.8839 50.4388 78.8839 48.0744 78.8839C48.2799 73.8994 48.2857 70.826 45.9036 60.5966C45.9036 60.5966 48.4696 60.0383 51.1041 59.9116C53.1651 59.8122 54.8535 59.7463 56.6654 59.9119C59.0533 60.1297 61.7623 60.6841 61.7623 60.6841Z" fill="#0F264C"/>
<path id="Vector_98" d="M47.8908 78.165L47.3386 79.2612C47.2957 79.3462 47.3965 79.433 47.538 79.433H60.3817C60.4922 79.433 60.5837 79.379 60.5905 79.3095L60.701 78.2133C60.7086 78.1373 60.6128 78.0729 60.4922 78.0729H48.0906C47.9992 78.0732 47.9185 78.1103 47.8908 78.165Z" fill="#9FC6FF"/>
<path id="Vector_99" d="M49.5564 79.5517H49.2241C49.1578 79.5517 49.1074 79.5175 49.1121 79.4761L49.268 78.0519C49.2727 78.0102 49.3303 77.9763 49.3965 77.9763H49.7288C49.795 77.9763 49.8454 78.0105 49.8408 78.0519L49.6849 79.4761C49.6802 79.5178 49.6222 79.5517 49.5564 79.5517Z" fill="#19437F"/>
<path id="Vector_100" d="M57.6071 79.5517H57.2749C57.2086 79.5517 57.1582 79.5175 57.1629 79.4761L57.3188 78.0519C57.3235 78.0102 57.3811 77.9763 57.4473 77.9763H57.7796C57.8458 77.9763 57.8962 78.0105 57.8915 78.0519L57.7357 79.4761C57.7313 79.5178 57.6734 79.5517 57.6071 79.5517Z" fill="#19437F"/>
</g>
<path id="Vector_101" d="M50.2915 44.7001C51.2329 43.6622 54.4247 42.0746 57.1628 43.3202C59.9013 44.5655 59.7779 47.3943 59.7779 47.3943L57.3093 49.0482L50.2915 44.7001Z" fill="#0F264C"/>
<path id="Vector_102" d="M47.7715 47.4351C49.1297 46.3216 50.668 42.2885 47.7524 43.694C44.8364 45.0994 44.0174 50.5127 47.7715 47.4351Z" fill="#9FC6FF"/>
<path id="Vector_103" d="M48.0765 44.8481C48.6633 43.1334 44.7951 39.726 42.1843 42.9667C39.574 46.2075 46.3881 49.7812 48.0765 44.8481Z" fill="#0F264C"/>
<path id="Vector_104" d="M54.1332 47.2399C51.8817 46.2812 50.765 42.6531 54.6278 42.7568C58.4906 42.8605 58.379 49.0482 54.1332 47.2399Z" fill="#9FC6FF"/>
<path id="Vector_105" d="M53.4062 45.3449C52.0422 43.6425 53.5495 39.2638 57.4634 40.6765C61.3777 42.0895 56.5379 49.2531 53.4062 45.3449Z" fill="#0F264C"/>
</g>
</g>
</g>
</g>
</svg>
