<svg width="153" height="152" viewBox="0 0 153 152" fill="none" xmlns="http://www.w3.org/2000/svg">
<g id="vault/bro">
<g id="Shadow--inject-1">
<path id="Vector" d="M46.5614 151.611C56.3863 151.611 64.351 150.025 64.351 148.068C64.351 146.111 56.3863 144.525 46.5614 144.525C36.7364 144.525 28.7717 146.111 28.7717 148.068C28.7717 150.025 36.7364 151.611 46.5614 151.611Z" fill="#F8F8F8"/>
</g>
<g id="Vault--inject-1">
<path id="Vector_2" d="M114.848 114C135.919 93.0132 135.919 58.9868 114.848 38C93.7771 17.0132 59.6144 17.0132 38.5436 38C17.4727 58.9868 17.4727 93.0132 38.5436 114C59.6144 134.987 93.7771 134.987 114.848 114Z" fill="white" stroke="#244B8A" stroke-miterlimit="10" stroke-linecap="round"/>
<path id="Vector_3" d="M76.697 125.069C103.907 125.069 125.965 103.099 125.965 75.9981C125.965 48.8968 103.907 26.9269 76.697 26.9269C49.4871 26.9269 27.4292 48.8968 27.4292 75.9981C27.4292 103.099 49.4871 125.069 76.697 125.069Z" fill="white" stroke="#244B8A" stroke-miterlimit="10" stroke-linecap="round"/>
<path id="Vector_4" d="M76.697 121.403C101.874 121.403 122.284 101.075 122.284 75.9981C122.284 50.9214 101.874 30.5928 76.697 30.5928C51.5199 30.5928 31.1099 50.9214 31.1099 75.9981C31.1099 101.075 51.5199 121.403 76.697 121.403Z" fill="white" stroke="#244B8A" stroke-miterlimit="10" stroke-linecap="round"/>
<path id="Vector_5" d="M76.6969 34.9466C68.5442 34.9466 60.5746 37.3545 53.796 41.8659C47.0173 46.3773 41.7341 52.7895 38.6144 60.2916C35.4947 67.7938 34.6786 76.0488 36.2694 84.0129C37.8602 91.977 41.7864 99.2923 47.5514 105.034C53.3165 110.775 60.6615 114.685 68.6577 116.269C76.6538 117.853 84.9418 117.039 92.4737 113.931C100.006 110.823 106.443 105.56 110.972 98.8083C115.501 92.0563 117.917 84.1183 117.917 75.9981C117.917 70.6068 116.85 65.2683 114.779 60.2875C112.707 55.3066 109.671 50.781 105.843 46.9689C102.016 43.1569 97.4717 40.1332 92.4707 38.0704C87.4697 36.0075 82.1097 34.9461 76.6969 34.9466ZM76.6969 113.722C69.2029 113.722 61.8772 111.509 55.6462 107.362C49.4151 103.215 44.5586 97.3208 41.6908 90.4249C38.823 83.529 38.0726 75.9409 39.5346 68.6202C40.9967 61.2995 44.6054 54.5751 49.9044 49.2972C55.2035 44.0192 61.9549 40.4249 69.3048 38.9688C76.6548 37.5126 84.2733 38.26 91.1968 41.1163C98.1204 43.9727 104.038 48.8099 108.201 55.016C112.365 61.2222 114.587 68.5187 114.587 75.9827C114.589 80.94 113.611 85.8491 111.707 90.4296C109.804 95.0101 107.013 99.1723 103.495 102.678C99.9762 106.184 95.7985 108.966 91.2004 110.863C86.6024 112.761 81.674 113.737 76.6969 113.737V113.722Z" fill="#244B8A"/>
<g id="Vector_6" style="mix-blend-mode:multiply">
<path d="M130.386 81.3395C75.6013 64.374 38.0196 90.4697 27.8381 98.816C32.8547 109.466 41.2405 118.182 51.7092 123.628C62.1778 129.073 74.1512 130.948 85.7925 128.964C97.4338 126.98 108.1 121.247 116.155 112.644C124.211 104.042 129.21 93.0444 130.386 81.3395Z" fill="#F8F8F8"/>
</g>
<path id="Vector_7" d="M125.942 31.2615H124.958C123.381 31.2615 122.103 32.5346 122.103 34.1051V39.7538C122.103 41.3243 123.381 42.5974 124.958 42.5974H125.942C127.518 42.5974 128.797 41.3243 128.797 39.7538V34.1051C128.797 32.5346 127.518 31.2615 125.942 31.2615Z" fill="#2E353A" stroke="#2E353A" stroke-miterlimit="10" stroke-linecap="round"/>
<path id="Vector_8" d="M125.942 110.94H124.958C123.381 110.94 122.103 112.213 122.103 113.783V119.432C122.103 121.003 123.381 122.276 124.958 122.276H125.942C127.518 122.276 128.797 121.003 128.797 119.432V113.783C128.797 112.213 127.518 110.94 125.942 110.94Z" fill="#2E353A" stroke="#2E353A" stroke-miterlimit="10" stroke-linecap="round"/>
<path id="Vector_9" d="M77.1908 31.2615H76.207C74.6303 31.2615 73.3521 32.5346 73.3521 34.1051V39.7538C73.3521 41.3243 74.6303 42.5974 76.207 42.5974H77.1908C78.7676 42.5974 80.0458 41.3243 80.0458 39.7538V34.1051C80.0458 32.5346 78.7676 31.2615 77.1908 31.2615Z" fill="#2E353A" stroke="#2E353A" stroke-miterlimit="10" stroke-linecap="round"/>
<path id="Vector_10" d="M77.1908 110.94H76.207C74.6303 110.94 73.3521 112.213 73.3521 113.783V119.432C73.3521 121.003 74.6303 122.276 76.207 122.276H77.1908C78.7676 122.276 80.0458 121.003 80.0458 119.432V113.783C80.0458 112.213 78.7676 110.94 77.1908 110.94Z" fill="#2E353A" stroke="#2E353A" stroke-miterlimit="10" stroke-linecap="round"/>
<path id="Vector_11" d="M76.6969 19.5605C77.2977 19.5605 77.7848 19.0753 77.7848 18.4768C77.7848 17.8784 77.2977 17.3932 76.6969 17.3932C76.096 17.3932 75.6089 17.8784 75.6089 18.4768C75.6089 19.0753 76.096 19.5605 76.6969 19.5605Z" fill="white" stroke="#2E353A" stroke-miterlimit="10" stroke-linecap="round"/>
<path id="Vector_12" d="M57.97 21.574C57.8962 21.3728 57.7642 21.198 57.5907 21.0715C57.4172 20.945 57.2099 20.8726 56.9951 20.8633C56.7803 20.8541 56.5675 20.9084 56.3837 21.0195C56.1999 21.1306 56.0532 21.2935 55.9622 21.4875C55.8713 21.6816 55.8401 21.8981 55.8726 22.1098C55.9051 22.3215 55.9999 22.5189 56.145 22.677C56.29 22.8351 56.4789 22.9468 56.6876 22.9981C56.8964 23.0493 57.1157 23.0379 57.318 22.965C57.4526 22.9166 57.5764 22.8421 57.6821 22.7459C57.7878 22.6496 57.8734 22.5336 57.9339 22.4043C57.9945 22.2751 58.0289 22.1352 58.0351 21.9928C58.0412 21.8503 58.0191 21.708 57.97 21.574Z" fill="white" stroke="#2E353A" stroke-miterlimit="10" stroke-linecap="round"/>
<path id="Vector_13" d="M40.4077 31.2384C40.2683 31.0759 40.0838 30.9582 39.8773 30.8999C39.6709 30.8416 39.4518 30.8454 39.2475 30.9109C39.0432 30.9763 38.863 31.1005 38.7294 31.2677C38.5957 31.4349 38.5148 31.6377 38.4966 31.8507C38.4784 32.0636 38.5239 32.2772 38.6272 32.4645C38.7306 32.6517 38.8872 32.8044 39.0775 32.9032C39.2677 33.0021 39.483 33.0427 39.6964 33.02C39.9097 32.9972 40.1116 32.9122 40.2765 32.7755C40.3877 32.684 40.4795 32.5713 40.5464 32.4441C40.6134 32.3168 40.6542 32.1775 40.6664 32.0344C40.6786 31.8912 40.662 31.7471 40.6176 31.6104C40.5732 31.4737 40.5018 31.3473 40.4077 31.2384Z" fill="white" stroke="#2E353A" stroke-miterlimit="10" stroke-linecap="round"/>
<path id="Vector_14" d="M27.2286 46.2864C27.0431 46.1777 26.8294 46.1261 26.6146 46.1384C26.3998 46.1506 26.1934 46.226 26.0215 46.355C25.8497 46.4841 25.7202 46.661 25.6493 46.8634C25.5784 47.0657 25.5694 47.2845 25.6234 47.492C25.6774 47.6995 25.7919 47.8864 25.9525 48.029C26.1131 48.1717 26.3126 48.2637 26.5257 48.2934C26.7388 48.3231 26.956 48.2892 27.1498 48.196C27.3436 48.1028 27.5052 47.9544 27.6144 47.7697C27.7596 47.5218 27.8006 47.2267 27.7283 46.9489C27.656 46.671 27.4764 46.4329 27.2286 46.2864Z" fill="white" stroke="#2E353A" stroke-miterlimit="10" stroke-linecap="round"/>
<path id="Vector_15" d="M20.0101 64.9427C19.7983 64.9057 19.5802 64.9321 19.3834 65.0185C19.1866 65.105 19.0199 65.2476 18.9044 65.4283C18.789 65.6091 18.7299 65.8198 18.7346 66.034C18.7394 66.2482 18.8078 66.4562 18.9312 66.6316C19.0546 66.8071 19.2274 66.9422 19.4278 67.0199C19.6283 67.0976 19.8474 67.1144 20.0574 67.0681C20.2674 67.0218 20.4589 66.9146 20.6078 66.7599C20.7566 66.6053 20.8561 66.4102 20.8936 66.1992C20.9186 66.0589 20.9156 65.9151 20.8847 65.776C20.8538 65.6368 20.7956 65.5051 20.7135 65.3884C20.6315 65.2717 20.5271 65.1723 20.4064 65.0958C20.2857 65.0193 20.151 64.9672 20.0101 64.9427Z" fill="white" stroke="#2E353A" stroke-miterlimit="10" stroke-linecap="round"/>
<path id="Vector_16" d="M19.6319 84.9208C19.4201 84.9582 19.2242 85.0573 19.069 85.2055C18.9137 85.3538 18.806 85.5446 18.7596 85.7537C18.7131 85.9629 18.7299 86.1811 18.8079 86.3808C18.8859 86.5804 19.0216 86.7525 19.1978 86.8754C19.374 86.9983 19.5828 87.0665 19.7978 87.0712C20.0128 87.0759 20.2244 87.0171 20.4059 86.9021C20.5874 86.7871 20.7306 86.6211 20.8173 86.4251C20.9041 86.229 20.9306 86.0118 20.8935 85.8008C20.8688 85.6604 20.8166 85.5263 20.7398 85.4061C20.663 85.2859 20.5632 85.1819 20.446 85.1002C20.3288 85.0185 20.1966 84.9605 20.0569 84.9298C19.9172 84.899 19.7728 84.8959 19.6319 84.9208Z" fill="white" stroke="#2E353A" stroke-miterlimit="10" stroke-linecap="round"/>
<path id="Vector_17" d="M26.1367 103.823C25.9512 103.932 25.8022 104.093 25.7086 104.286C25.615 104.479 25.581 104.695 25.6109 104.907C25.6407 105.12 25.7331 105.318 25.8763 105.478C26.0195 105.638 26.2072 105.752 26.4155 105.806C26.6238 105.86 26.8434 105.851 27.0466 105.78C27.2498 105.71 27.4274 105.581 27.557 105.41C27.6866 105.238 27.7623 105.033 27.7745 104.819C27.7868 104.605 27.7351 104.392 27.6259 104.207C27.5538 104.084 27.458 103.977 27.344 103.891C27.23 103.805 27.1 103.742 26.9616 103.707C26.8232 103.671 26.679 103.663 26.5374 103.683C26.3959 103.703 26.2597 103.75 26.1367 103.823Z" fill="white" stroke="#2E353A" stroke-miterlimit="10" stroke-linecap="round"/>
<path id="Vector_18" d="M38.7449 119.367C38.6081 119.531 38.5232 119.733 38.501 119.945C38.4787 120.158 38.5201 120.372 38.6198 120.561C38.7195 120.751 38.8732 120.906 39.0614 121.009C39.2497 121.111 39.4642 121.156 39.6779 121.137C39.8917 121.119 40.0951 121.037 40.2626 120.904C40.4302 120.77 40.5544 120.591 40.6196 120.387C40.6848 120.183 40.6881 119.965 40.6292 119.76C40.5702 119.554 40.4515 119.371 40.2881 119.232C40.1783 119.139 40.0511 119.069 39.9138 119.025C39.7765 118.982 39.6318 118.966 39.4883 118.978C39.3447 118.991 39.205 119.031 39.0774 119.098C38.9498 119.165 38.8368 119.256 38.7449 119.367Z" fill="white" stroke="#2E353A" stroke-miterlimit="10" stroke-linecap="round"/>
<path id="Vector_19" d="M55.9212 129.673C55.8481 129.874 55.8366 130.093 55.8881 130.301C55.9396 130.509 56.0517 130.697 56.2105 130.841C56.3692 130.986 56.5673 131.08 56.7799 131.112C56.9924 131.145 57.2098 131.114 57.4047 131.023C57.5995 130.933 57.763 130.787 57.8746 130.603C57.9861 130.42 58.0407 130.208 58.0314 129.994C58.0221 129.781 57.9494 129.574 57.8224 129.401C57.6954 129.228 57.5198 129.097 57.3179 129.023C57.1834 128.974 57.0404 128.952 56.8972 128.957C56.754 128.963 56.6134 128.998 56.4835 129.058C56.3536 129.118 56.237 129.204 56.1405 129.309C56.044 129.415 55.9695 129.538 55.9212 129.673Z" fill="white" stroke="#2E353A" stroke-miterlimit="10" stroke-linecap="round"/>
<path id="Vector_20" d="M75.6089 133.516C75.6081 133.731 75.6716 133.942 75.7913 134.121C75.911 134.301 76.0815 134.441 76.2811 134.523C76.4808 134.606 76.7006 134.628 76.9128 134.586C77.1249 134.544 77.3198 134.441 77.4728 134.288C77.6257 134.136 77.7298 133.942 77.7718 133.731C77.8138 133.519 77.7918 133.3 77.7087 133.102C77.6256 132.903 77.4851 132.733 77.3049 132.614C77.1248 132.494 76.9131 132.431 76.6969 132.432C76.4083 132.432 76.1316 132.546 75.9276 132.749C75.7235 132.953 75.6089 133.228 75.6089 133.516Z" fill="white" stroke="#2E353A" stroke-miterlimit="10" stroke-linecap="round"/>
<path id="Vector_21" d="M95.4279 130.441C95.5017 130.643 95.6337 130.817 95.8072 130.944C95.9807 131.07 96.188 131.143 96.4028 131.152C96.6176 131.161 96.8304 131.107 97.0142 130.996C97.198 130.885 97.3447 130.722 97.4356 130.528C97.5266 130.334 97.5578 130.117 97.5253 129.906C97.4927 129.694 97.398 129.497 97.2529 129.338C97.1078 129.18 96.919 129.069 96.7103 129.017C96.5015 128.966 96.2821 128.978 96.0799 129.05C95.9453 129.099 95.8215 129.173 95.7158 129.27C95.6101 129.366 95.5245 129.482 95.464 129.611C95.4034 129.74 95.369 129.88 95.3628 130.023C95.3566 130.165 95.3788 130.307 95.4279 130.441Z" fill="white" stroke="#2E353A" stroke-miterlimit="10" stroke-linecap="round"/>
<path id="Vector_22" d="M112.986 120.762C113.125 120.926 113.31 121.045 113.517 121.105C113.724 121.164 113.945 121.161 114.15 121.097C114.356 121.032 114.537 120.908 114.672 120.74C114.807 120.572 114.889 120.369 114.908 120.155C114.927 119.941 114.881 119.726 114.778 119.538C114.674 119.349 114.517 119.196 114.326 119.096C114.135 118.997 113.918 118.956 113.704 118.979C113.49 119.002 113.287 119.087 113.121 119.225C113.01 119.316 112.918 119.429 112.851 119.556C112.784 119.683 112.744 119.822 112.731 119.965C112.718 120.108 112.734 120.252 112.778 120.389C112.822 120.526 112.893 120.652 112.986 120.762Z" fill="white" stroke="#2E353A" stroke-miterlimit="10" stroke-linecap="round"/>
<path id="Vector_23" d="M126.169 105.702C126.355 105.811 126.568 105.862 126.783 105.85C126.998 105.838 127.204 105.763 127.376 105.634C127.548 105.504 127.678 105.328 127.748 105.125C127.819 104.923 127.828 104.704 127.774 104.497C127.72 104.289 127.606 104.102 127.445 103.96C127.285 103.817 127.085 103.725 126.872 103.695C126.659 103.665 126.442 103.699 126.248 103.793C126.054 103.886 125.892 104.034 125.783 104.219C125.638 104.467 125.597 104.762 125.669 105.04C125.742 105.318 125.921 105.556 126.169 105.702Z" fill="white" stroke="#2E353A" stroke-miterlimit="10" stroke-linecap="round"/>
<path id="Vector_24" d="M133.384 87.0574C133.596 87.0944 133.814 87.068 134.011 86.9815C134.207 86.8951 134.374 86.7525 134.49 86.5717C134.605 86.391 134.664 86.1802 134.659 85.966C134.655 85.7518 134.586 85.5439 134.463 85.3684C134.339 85.1929 134.167 85.0578 133.966 84.9801C133.766 84.9024 133.547 84.8857 133.337 84.932C133.127 84.9782 132.935 85.0855 132.786 85.2401C132.637 85.3948 132.538 85.5899 132.5 85.8008C132.475 85.9411 132.478 86.085 132.509 86.2241C132.54 86.3632 132.598 86.4949 132.68 86.6116C132.762 86.7283 132.867 86.8278 132.988 86.9043C133.108 86.9808 133.243 87.0328 133.384 87.0574Z" fill="white" stroke="#2E353A" stroke-miterlimit="10" stroke-linecap="round"/>
<path id="Vector_25" d="M133.762 67.0792C133.974 67.0418 134.169 66.9427 134.325 66.7944C134.48 66.6462 134.588 66.4554 134.634 66.2462C134.681 66.0371 134.664 65.8189 134.586 65.6192C134.508 65.4196 134.372 65.2474 134.196 65.1245C134.02 65.0017 133.811 64.9335 133.596 64.9288C133.381 64.9241 133.169 64.9829 132.988 65.0979C132.806 65.2129 132.663 65.3789 132.576 65.5749C132.49 65.7709 132.463 65.9882 132.5 66.1992C132.525 66.3395 132.577 66.4737 132.654 66.5939C132.731 66.7141 132.831 66.8181 132.948 66.8998C133.065 66.9815 133.197 67.0394 133.337 67.0702C133.477 67.101 133.621 67.104 133.762 67.0792Z" fill="white" stroke="#2E353A" stroke-miterlimit="10" stroke-linecap="round"/>
<path id="Vector_26" d="M127.257 48.177C127.443 48.0688 127.593 47.908 127.687 47.715C127.781 47.522 127.816 47.3055 127.786 47.093C127.757 46.8805 127.664 46.6814 127.521 46.5211C127.378 46.3608 127.19 46.2464 126.982 46.1925C126.773 46.1385 126.553 46.1474 126.35 46.2181C126.147 46.2888 125.969 46.418 125.839 46.5893C125.71 46.7607 125.634 46.9666 125.622 47.1808C125.61 47.395 125.662 47.608 125.772 47.7927C125.918 48.0393 126.156 48.2181 126.435 48.2901C126.713 48.3621 127.009 48.3215 127.257 48.177Z" fill="white" stroke="#2E353A" stroke-miterlimit="10" stroke-linecap="round"/>
<path id="Vector_27" d="M114.657 32.6333C114.795 32.4687 114.882 32.2669 114.905 32.0534C114.929 31.8398 114.888 31.6242 114.789 31.4335C114.689 31.2429 114.536 31.0859 114.347 30.9822C114.158 30.8786 113.942 30.833 113.727 30.8512C113.513 30.8694 113.308 30.9506 113.139 31.0845C112.971 31.2184 112.846 31.399 112.78 31.6036C112.714 31.8082 112.711 32.0276 112.77 32.2341C112.83 32.4406 112.949 32.625 113.113 32.764C113.223 32.8567 113.35 32.927 113.487 32.9706C113.624 33.0143 113.769 33.0305 113.912 33.0183C114.056 33.0062 114.195 32.9659 114.323 32.8999C114.451 32.8338 114.564 32.7432 114.657 32.6333Z" fill="white" stroke="#2E353A" stroke-miterlimit="10" stroke-linecap="round"/>
<path id="Vector_28" d="M97.4725 22.3156C97.5459 22.1141 97.5577 21.8954 97.5063 21.6873C97.4549 21.4791 97.3427 21.2908 97.1838 21.1462C97.025 21.0015 96.8266 20.9071 96.6138 20.8748C96.4011 20.8424 96.1834 20.8737 95.9885 20.9646C95.7936 21.0555 95.6301 21.2019 95.5188 21.3854C95.4074 21.5688 95.3532 21.781 95.3629 21.9952C95.3727 22.2093 95.446 22.4158 95.5736 22.5884C95.7012 22.7611 95.8774 22.8921 96.0798 22.965C96.214 23.0139 96.3566 23.0359 96.4994 23.0297C96.6422 23.0235 96.7823 22.9892 96.9118 22.9289C97.0412 22.8685 97.1574 22.7833 97.2536 22.678C97.3499 22.5728 97.4243 22.4496 97.4725 22.3156Z" fill="white" stroke="#2E353A" stroke-miterlimit="10" stroke-linecap="round"/>
<path id="Vector_29" d="M76.3652 8.17452V5.79205" stroke="#2E353A" stroke-miterlimit="10" stroke-linecap="round"/>
<path id="Vector_30" d="M76.3652 15.4257V9.58862" stroke="#2E353A" stroke-miterlimit="10" stroke-linecap="round"/>
<path id="Vector_31" d="M76.3652 142.577V136.325" stroke="#2E353A" stroke-miterlimit="10" stroke-linecap="round"/>
</g>
<g id="Character--inject-1">
<path id="Vector_32" d="M53.9072 146.196C53.1283 145.877 52.3739 145.5 51.6502 145.071C51.6502 145.071 55.8247 124.405 55.979 117.618C56.1333 110.832 57.0631 96.7871 57.0631 96.7871H38.3591C38.3591 96.7871 39.2889 110.828 39.4433 117.618C39.5976 124.408 42.9155 145.071 42.9155 145.071C42.1904 145.5 41.4347 145.876 40.6547 146.196C39.6516 146.581 38.3977 147.069 39.0227 147.319C39.8718 147.595 40.7714 147.681 41.6578 147.572C42.9693 147.225 44.2337 146.72 45.4233 146.07C45.9248 145.685 46.5807 105.429 46.5807 105.429H47.9195C47.9195 105.429 48.6216 145.697 49.1232 146.07C50.3131 146.72 51.5774 147.224 52.8887 147.572C53.7751 147.681 54.6747 147.595 55.5238 147.319C56.1642 147.08 54.9103 146.581 53.9072 146.196Z" fill="#2E353A" stroke="#2E353A" stroke-linecap="round" stroke-linejoin="round"/>
<path id="Vector_33" d="M37.2016 71.164C36.5534 71.2218 35.9295 71.4383 35.3856 71.7943C34.8418 72.1503 34.3947 72.6347 34.0843 73.2045C33.0387 75.1604 32.514 84.4098 32.9076 85.455C33.3011 86.5002 34.2154 87.5377 36.0442 86.1044C37.8729 84.6711 38.0079 83.2378 38.0079 83.2378L37.2016 71.164Z" fill="white" stroke="#2E353A" stroke-linecap="round" stroke-linejoin="round"/>
<path id="Vector_34" d="M58.4633 70.9488C58.4633 70.9488 61.164 70.4685 61.6964 72.5551C62.2288 74.6416 64.4434 80.7631 63.6602 83.2378C62.877 85.7124 59.8638 85.5856 57.7727 84.2791C55.6817 82.9726 58.4633 70.9488 58.4633 70.9488Z" fill="white" stroke="#2E353A" stroke-linecap="round" stroke-linejoin="round"/>
<path id="Vector_35" d="M46.133 67.6287L37.2092 71.164L38.3744 96.7986H57.0629L58.4634 70.9488L50.5814 67.7479L46.133 67.6287Z" fill="white" stroke="#2E353A" stroke-linecap="round" stroke-linejoin="round"/>
<path id="Vector_36" d="M45.0529 75.2834H38.8645V76.2748H45.0529V75.2834Z" fill="#2E353A" stroke="#2E353A" stroke-linecap="round" stroke-linejoin="round"/>
<path id="Vector_37" d="M57.0976 75.2834H50.9092V76.2748H57.0976V75.2834Z" fill="#2E353A" stroke="#2E353A" stroke-linecap="round" stroke-linejoin="round"/>
<path id="Vector_38" d="M57.1171 93.663H38.3745V96.7986H57.1171V93.663Z" fill="#2E353A" stroke="#2E353A" stroke-linecap="round" stroke-linejoin="round"/>
<path id="Vector_39" d="M49.397 93.5323H46.3877V95.2269H49.397V93.5323Z" fill="white" stroke="#2E353A" stroke-miterlimit="10" stroke-linecap="round"/>
<path id="Vector_40" d="M49.694 71.1102L47.9772 70.3263L46.6731 70.9373L47.7534 74.4457L45.9131 93.0943L47.6569 94.9657L49.694 93.0174L48.4517 74.4457L49.694 71.1102Z" fill="#244B8A"/>
<path id="Vector_41" d="M52.113 68.5279L58.7952 70.9757L57.8808 72.4167L51.7966 70.2955L52.113 68.5279Z" fill="#2E353A" stroke="#2E353A" stroke-linecap="round" stroke-linejoin="round"/>
<path id="Vector_42" d="M47.0435 71.2639L44.5589 73.6118C44.5589 73.6118 43.1199 69.5731 43.1199 68.9198C43.1199 68.2666 44.8174 66.3145 44.8174 66.3145L51.2296 66.1838L53.583 69.0505L51.6231 73.4811L48.8761 71.3945L47.0435 71.2639Z" fill="white" stroke="#2E353A" stroke-linecap="round" stroke-linejoin="round"/>
<path id="Vector_43" d="M43.1199 68.9045L36.4338 71.3561L37.3482 72.7971L43.4324 70.676L43.1199 68.9045Z" fill="#2E353A" stroke="#2E353A" stroke-linecap="round" stroke-linejoin="round"/>
<path id="Vector_44" d="M51.5535 69.4386L48.2549 72.313L45.0256 69.4386V61.7763H51.5535V69.4386Z" fill="white"/>
<g id="Clip path group">
<mask id="mask0_2213_1869" style="mask-type:luminance" maskUnits="userSpaceOnUse" x="45" y="61" width="7" height="12">
<g id="clip-path--inject-1">
<path id="Vector_45" d="M51.5535 69.4386L48.2549 72.313L45.0256 69.4386V61.7763H51.5535V69.4386Z" fill="white"/>
</g>
</mask>
<g mask="url(#mask0_2213_1869)">
<g id="Group">
<g id="Vector_46" style="mix-blend-mode:multiply">
<path d="M44.9255 66.718L47.2635 69.4194H49.3932L51.5537 67.0447L51.3454 64.7928L45.0258 64.4931L44.9255 66.718Z" fill="#244B8A"/>
</g>
</g>
</g>
</g>
<path id="Vector_47" d="M51.5535 69.4386L48.2549 72.313L45.0256 69.4386V61.7763H51.5535V69.4386Z" stroke="#2E353A" stroke-linecap="round" stroke-linejoin="round"/>
<path id="Vector_48" d="M44.3197 59.7358C44.3197 59.7358 43.1121 59.4207 43.2317 60.2623C43.3513 61.1038 43.7178 62.6755 44.3197 63.0367L44.9254 63.3979L44.3197 59.7358Z" fill="white" stroke="#2E353A" stroke-linecap="round" stroke-linejoin="round"/>
<path id="Vector_49" d="M52.4216 59.7358C52.4216 59.7358 53.6331 59.4207 53.5096 60.2623C53.3862 61.1038 53.0274 62.6755 52.4216 63.0367L51.8159 63.3979L52.4216 59.7358Z" fill="white" stroke="#2E353A" stroke-linecap="round" stroke-linejoin="round"/>
<path id="Vector_50" d="M52.9926 58.3409C52.9933 57.6793 52.85 57.0254 52.5727 56.4242C52.2954 55.823 51.8907 55.2887 51.3863 54.8582C50.8819 54.4277 50.2899 54.1111 49.6509 53.9303C49.012 53.7494 48.3413 53.7086 47.6849 53.8105C47.0286 53.9125 46.4023 54.1549 45.849 54.521C45.2957 54.8871 44.8286 55.3682 44.4798 55.9313C44.1311 56.4944 43.9089 57.126 43.8286 57.7828C43.7484 58.4395 43.8119 59.1058 44.0148 59.7358L45.1723 65.2193L47.3096 68.2089H49.3737L51.4494 65.6036L52.7187 59.8626C52.8962 59.3746 52.9888 58.8599 52.9926 58.3409Z" fill="white" stroke="#2E353A" stroke-linecap="round" stroke-linejoin="round"/>
<path id="Vector_51" d="M44.9177 59.2516C44.9177 59.2516 45.6546 58.4562 46.3221 58.7213C46.9895 58.9865 46.7272 59.7858 48.6601 59.9856C49.7483 60.1178 50.8525 60.0022 51.8893 59.6474L51.9935 57.9797L44.9177 56.9921V59.2516Z" fill="#2E353A"/>
<path id="Vector_52" d="M52.0011 57.9797C51.7439 58.5533 51.581 59.1645 51.5188 59.7896C51.5188 60.5121 52.1245 61.9569 52.1245 61.9569C52.1245 61.9569 53.5752 58.9442 53.4556 57.8606C53.336 56.7769 51.8815 57.6185 52.0011 57.9797Z" fill="#2E353A" stroke="#2E353A" stroke-linecap="round" stroke-linejoin="round"/>
<path id="Vector_53" d="M44.3776 61.7187C44.3776 61.7187 44.3776 61.5304 44.4084 61.2499C44.4779 60.4813 44.6592 58.9711 45.1029 58.7021C45.7086 58.3409 45.6469 56.4426 45.6469 56.4426C45.6469 56.4426 44.8019 57.3918 47.7071 58.364C50.6122 59.3362 52.9695 58.9519 54.5436 56.9038C56.1177 54.8556 54.6632 53.4069 54.424 54.1293C54.1848 54.8518 53.6948 55.8201 52.8499 55.0939C52.005 54.3676 50.6701 52.9266 48.2511 52.9266C45.8321 52.9266 44.7402 55.0939 44.7402 55.0939C44.3523 55.2834 44.0234 55.5745 43.7889 55.936C43.5544 56.2975 43.4232 56.7157 43.4092 57.1459C43.4092 58.583 44.3776 61.7187 44.3776 61.7187Z" fill="#2E353A" stroke="#2E353A" stroke-linecap="round" stroke-linejoin="round"/>
<path id="Vector_54" d="M52.8923 57.9028C51.1794 57.972 49.721 56.823 48.2318 55.8086C46.7426 54.7941 45.7356 55.8086 45.7356 55.8086C45.851 55.2574 46.1456 54.7595 46.5739 54.392C47.0021 54.0245 47.5401 53.8079 48.1045 53.7758C50.1261 53.6451 50.8051 56.4119 52.6686 56.654" stroke="white" stroke-width="0.5" stroke-linecap="round" stroke-linejoin="round"/>
<path id="Vector_55" d="M48.062 61.6187H44.0149L44.4431 62.9483C44.4839 63.0743 44.5638 63.1843 44.6712 63.2623C44.7787 63.3403 44.9082 63.3824 45.0411 63.3825H47.1322C47.2717 63.3823 47.407 63.3357 47.5168 63.25C47.6265 63.1644 47.7044 63.0446 47.7379 62.9099L48.062 61.6187Z" fill="#2E353A" stroke="#2E353A" stroke-linecap="round" stroke-linejoin="round"/>
<path id="Vector_56" d="M52.5569 61.6187H48.5059L48.9341 62.9483C48.9749 63.0743 49.0547 63.1843 49.1622 63.2623C49.2696 63.3403 49.3991 63.3824 49.5321 63.3825H51.6232C51.7631 63.3825 51.899 63.336 52.0094 63.2504C52.1198 63.1648 52.1984 63.045 52.2328 62.9099L52.5569 61.6187Z" fill="#2E353A" stroke="#2E353A" stroke-linecap="round" stroke-linejoin="round"/>
<path id="Vector_57" d="M44.0148 61.6188L43.8103 59.6475" stroke="#2E353A" stroke-linecap="round" stroke-linejoin="round"/>
<path id="Vector_58" d="M52.5566 61.6187L53.0158 59.7473" stroke="#2E353A" stroke-linecap="round" stroke-linejoin="round"/>
<path id="Vector_59" d="M48.062 61.6187H48.5057" stroke="#2E353A" stroke-linecap="round" stroke-linejoin="round"/>
<path id="Vector_60" d="M47.9502 62.2451H48.6678" stroke="#2E353A" stroke-linecap="round" stroke-linejoin="round"/>
<path id="Vector_61" d="M49.127 64.7928C49.127 64.7928 48.8222 65.2501 48.4634 65.2501C48.1046 65.2501 47.7998 64.7928 47.7998 64.7928" stroke="#2E353A" stroke-linecap="round" stroke-linejoin="round"/>
<path id="Vector_62" d="M38.2778 94.835C38.2778 94.835 35.0061 96.2684 35.0061 97.1829C35.0061 98.0975 36.0516 103.958 36.7075 105.253C37.3634 106.548 37.8842 107.078 39.061 106.294C40.2377 105.51 38.2778 94.835 38.2778 94.835Z" fill="#2E353A" stroke="#2E353A" stroke-linecap="round" stroke-linejoin="round"/>
<path id="Vector_63" d="M58.6873 91.8377H56.8547V103.174H58.6873V91.8377Z" fill="#2E353A" stroke="#2E353A" stroke-linecap="round" stroke-linejoin="round"/>
<path id="Vector_64" d="M59.6015 89.4937H55.9402V92.8829H59.6015V89.4937Z" fill="#2E353A" stroke="#2E353A" stroke-linecap="round" stroke-linejoin="round"/>
<g id="Vector_65">
<path d="M63.5291 81.1549C63.5291 81.1549 64.3007 84.0216 62.3485 85.063C61.6116 85.4472 58.1625 84.8017 54.1076 83.7603C50.0528 82.7189 47.8266 81.935 47.8266 81.935L36.4453 81.6737C36.4453 81.6737 35.3997 79.591 36.97 78.4151C38.5402 77.2392 44.3004 78.9377 44.3004 78.9377L56.0752 79.199C56.0752 79.199 58.5598 78.0462 61.9627 79.0684" fill="white"/>
<path d="M63.5291 81.1549C63.5291 81.1549 64.3007 84.0216 62.3485 85.063C61.6116 85.4472 58.1625 84.8017 54.1076 83.7603C50.0528 82.7189 47.8266 81.935 47.8266 81.935L36.4453 81.6737C36.4453 81.6737 35.3997 79.591 36.97 78.4151C38.5402 77.2392 44.3004 78.9377 44.3004 78.9377L56.0752 79.199C56.0752 79.199 58.5598 78.0462 61.9627 79.0684" stroke="#2E353A" stroke-linecap="round" stroke-linejoin="round"/>
</g>
<g id="Vector_66">
<path d="M34.8867 81.9351C34.8867 81.9351 37.6337 79.7217 39.7286 78.9378C41.8236 78.1539 53.4673 77.8964 53.4673 77.8964C53.4673 77.8964 56.7351 78.9378 56.0831 79.1991C55.431 79.4604 52.8114 79.7217 51.6347 80.2405C50.458 80.7592 43.6523 85.455 35.4307 86.627C33.6251 86.8845 33.2046 86.7577 32.8149 84.9324" fill="white"/>
<path d="M34.8867 81.9351C34.8867 81.9351 37.6337 79.7217 39.7286 78.9378C41.8236 78.1539 53.4673 77.8964 53.4673 77.8964C53.4673 77.8964 56.7351 78.9378 56.0831 79.1991C55.431 79.4604 52.8114 79.7217 51.6347 80.2405C50.458 80.7592 43.6523 85.455 35.4307 86.627C33.6251 86.8845 33.2046 86.7577 32.8149 84.9324" stroke="#2E353A" stroke-linecap="round" stroke-linejoin="round"/>
</g>
<path id="Vector_67" d="M51.573 78.0347L51.7929 79.9061H52.5684L52.6764 77.9271L51.573 78.0347Z" fill="#2E353A" stroke="#2E353A" stroke-linecap="round" stroke-linejoin="round"/>
</g>
</g>
</svg>
