<svg width="115" height="122" viewBox="0 0 115 122" fill="none" xmlns="http://www.w3.org/2000/svg">
<g id="Group">
<g id="Group_2">
<path id="Vector" fill-rule="evenodd" clip-rule="evenodd" d="M37.1485 42.6434L46.4243 53.4492L41.1647 58.0392L33.5147 48.0942C33.5147 48.0942 32.3672 45.4164 37.1485 42.6434Z" fill="#C65A45"/>
<path id="Vector_2" fill-rule="evenodd" clip-rule="evenodd" d="M29.4871 38.1027L32.2606 37.0629C32.2606 37.0629 36.9418 40.2697 39.8892 43.9105C39.8892 43.9105 37.1153 48.2447 35.3815 50.1517C33.648 52.059 30.0939 48.5048 29.4871 38.1027Z" fill="#D2774D"/>
</g>
<g id="Group_3">
<g id="Group_4">
<path id="Vector_3" fill-rule="evenodd" clip-rule="evenodd" d="M91.961 18.2897L94.0739 16.8234L95.6268 26.0991L87.4187 24.6649L91.961 18.2897Z" fill="#244B8A"/>
<g id="Group_5">
<path id="Vector_4" fill-rule="evenodd" clip-rule="evenodd" d="M38.9133 19.4044L33.9644 120.714H108.201L114.045 20.9858L38.9133 19.4044Z" fill="#F4F4F4"/>
<path id="Vector_5" fill-rule="evenodd" clip-rule="evenodd" d="M95.1999 20.5893L61.7666 19.8855L61.2002 26.0985L93.3822 28.8183L95.1999 20.5893Z" fill="#244B8A"/>
<path id="Vector_6" fill-rule="evenodd" clip-rule="evenodd" d="M36.9834 58.9093L33.9644 120.714H54.6894L36.9834 58.9093Z" fill="#DAE0FD"/>
</g>
<g id="Group_6">
<path id="Vector_7" fill-rule="evenodd" clip-rule="evenodd" d="M61.997 15.8983L71.2982 16.2153C72.1669 13.7545 72.6721 9.43131 79.5682 9.67305C86.4642 9.91479 85.9531 14.088 85.8552 16.5403L94.0738 16.823L91.8002 27.2139L61.2002 26.0982C61.2002 26.0982 61.3312 19.8766 61.997 15.8983ZM78.9124 11.4766C76.7888 11.4766 75.0675 13.0464 75.0675 14.9828C75.0675 16.9191 76.7891 18.4889 78.9124 18.4889C81.036 18.4889 82.7573 16.9191 82.7573 14.9828C82.7573 13.0464 81.036 11.4766 78.9124 11.4766Z" fill="#244B8A"/>
<path id="Vector_8" fill-rule="evenodd" clip-rule="evenodd" d="M72.2768 13.4136C73.1893 11.4059 74.9387 9.51086 79.5681 9.67304C82.7401 9.78443 84.3445 10.7278 85.1431 11.9524C85.1826 12.711 84.7502 13.428 83.3429 13.8533C83.0914 13.9295 82.85 13.9925 82.618 14.0443C82.1679 12.5635 80.6795 11.4763 78.9124 11.4763C77.0118 11.4763 75.4338 12.7337 75.1232 14.3861C73.6975 14.957 72.2413 15.1269 72.2768 13.4136Z" fill="#244B8A"/>
<path id="Vector_9" fill-rule="evenodd" clip-rule="evenodd" d="M79.4732 18.4518C77.7381 18.0819 76.31 16.6957 76.1032 15.0424C75.8611 13.106 77.3863 11.5362 79.5099 11.5362C79.5512 11.5362 79.5922 11.5368 79.6335 11.5381C79.4 11.4977 79.1586 11.4766 78.9123 11.4766C76.7886 11.4766 75.0674 13.0463 75.0674 14.9827C75.0674 16.9191 76.7889 18.4889 78.9123 18.4889C79.1029 18.4889 79.2902 18.4763 79.4732 18.4518Z" fill="#244B8A"/>
</g>
</g>
<g id="Group_7">
<g id="Group_8">
<path id="Vector_10" fill-rule="evenodd" clip-rule="evenodd" d="M63.2132 58.422C63.2202 58.4229 64.6431 58.604 66.1315 58.2638C66.3849 58.2059 66.5767 58.0413 66.6725 57.7995C66.7683 57.5578 66.7407 57.3063 66.5954 57.0909C66.4255 56.839 66.2992 56.5707 66.2181 56.2925C66.1315 55.996 66.0969 55.6894 66.1174 55.3806C66.171 54.5667 66.7175 54.0716 67.3729 53.8828C67.7518 53.7735 68.1685 53.7689 68.5443 53.8665C68.9305 53.9666 69.2769 54.175 69.5021 54.4889C69.8417 54.9623 69.9038 55.6572 69.4084 56.5551C69.2983 56.7546 69.174 56.9375 69.0379 57.1052C68.8647 57.3188 68.8191 57.586 68.9115 57.8448C69.0042 58.1037 69.2086 58.2812 69.4779 58.3366C69.7484 58.392 70.0363 58.4311 70.3399 58.451C71.2683 58.5122 72.3445 58.3978 73.5462 58.0474C74.5648 57.7503 75.4547 57.4519 76.2399 57.1885C79.063 56.2417 80.5784 55.7337 82.0879 57.2432C82.3608 57.5162 82.6478 57.7689 82.9434 57.9908C83.6843 58.5465 84.4997 58.9308 85.3152 58.9838C86.1157 59.0358 86.9257 58.7644 87.676 58.0138C87.8397 57.85 87.9985 57.6671 88.1509 57.4642C88.1534 57.4608 88.1555 57.4577 88.158 57.4544L88.2293 57.3562L88.0809 57.3399C86.508 57.1484 86.2641 56.563 86.4872 55.4461C86.6121 54.8219 87.0016 54.4853 87.452 54.3913C87.7534 54.3286 88.0796 54.3788 88.3679 54.5275C88.6525 54.6741 88.9022 54.9179 89.0543 55.2435C89.1705 55.492 89.2299 55.7879 89.203 56.1233C89.1852 56.347 89.2553 56.5462 89.4092 56.7093C89.5634 56.8724 89.7581 56.9538 89.9823 56.9489C91.4557 56.9161 93.5402 56.7582 96.4438 56.5085C106.007 55.686 104.077 57.3736 104.072 57.3785L103.97 57.2653C103.886 57.1729 103.834 57.0765 103.801 56.9562C103.749 56.7711 102.932 56.4036 96.4812 56.9584C92.9833 57.2592 90.6632 57.4271 89.1525 57.4039C88.8985 57.3999 88.6782 57.5085 88.5267 57.7123C88.5227 57.7179 88.5184 57.7234 88.5145 57.7289C88.3425 57.9581 88.169 58.1591 87.9952 58.3329C87.1424 59.1857 86.2121 59.4933 85.2865 59.4333C84.3761 59.3742 83.4792 58.9553 82.6729 58.3503C82.3525 58.1098 82.0493 57.8436 81.7678 57.5624C80.455 56.2497 79.0321 56.7267 76.3822 57.6153C75.5945 57.8794 74.7013 58.179 73.6707 58.4795C72.4152 58.8458 71.287 58.9651 70.3108 58.9008C69.4338 58.843 68.6771 58.6371 68.0577 58.3286C67.8466 58.2234 67.6223 58.2182 67.4066 58.3139C65.4831 59.1668 63.1679 58.8712 63.1587 58.8699L63.2132 58.422ZM65.5688 62.5328C65.577 62.5325 68.4724 62.403 72.473 62.2629L72.4871 62.7127C68.5119 62.8519 65.5948 62.9823 65.5862 62.9826L65.5688 62.5328ZM75.3461 62.1674C78.8816 62.0563 82.8467 61.9572 86.2785 61.933C89.7146 61.9088 92.6136 61.9605 94.0081 62.1521L93.9481 62.5986C92.5732 62.4101 89.6959 62.3589 86.2804 62.3831C82.8605 62.407 78.8975 62.5064 75.3601 62.6175L75.3461 62.1674ZM68.3035 57.2237C68.5792 56.9782 68.8215 56.686 69.0134 56.3378C69.41 55.6193 69.3809 55.0915 69.137 54.7518C68.9764 54.5281 68.7205 54.3772 68.4314 54.3023C68.1315 54.2246 67.7986 54.2282 67.4966 54.3151C67.0109 54.455 66.6064 54.817 66.5675 55.4088C66.5504 55.6664 66.5792 55.9216 66.6508 56.167C66.7554 56.5254 66.9519 56.8666 67.2334 57.1713C67.5155 57.4773 67.9926 57.5006 68.3035 57.2237ZM88.7418 56.212C88.7889 55.9072 88.7473 55.6459 88.6485 55.4345C88.5411 55.2044 88.3645 55.0321 88.1632 54.9284C87.9655 54.8265 87.7455 54.7913 87.5457 54.8329C87.2629 54.8919 87.016 55.115 86.9321 55.5348C86.7874 56.2585 86.9288 56.6704 87.8407 56.8467C88.0524 56.8877 88.2498 56.8451 88.4263 56.7212C88.6023 56.5967 88.7088 56.425 88.7418 56.212Z" fill="#244B8A"/>
<path id="Vector_11" fill-rule="evenodd" clip-rule="evenodd" d="M49.7868 55.7154C50.5096 55.3066 52.0772 55.1392 53.6259 55.1496C55.3683 55.1616 57.1137 55.403 57.6287 55.7818C57.7021 55.836 57.7685 55.9094 57.8276 55.9997C58.2278 56.6141 58.3943 58.2791 58.3068 59.9844C58.2193 61.6855 57.8815 63.4502 57.2737 64.2764C57.1575 64.4346 57.0292 64.5622 56.8891 64.6537C56.0993 65.169 54.502 65.3354 52.931 65.2418C51.2777 65.1433 49.6302 64.7543 48.964 64.1791C48.8581 64.0876 48.7645 63.9676 48.6831 63.8241C48.2397 63.0401 48.1271 61.4309 48.2746 59.8547C48.4221 58.2769 48.8318 56.7118 49.4325 56.0162C49.5426 55.8883 49.6611 55.7867 49.7868 55.7154ZM53.6241 55.5997C52.1415 55.5897 50.6589 55.7396 50.009 56.1071C49.9291 56.1524 49.8499 56.2215 49.7728 56.3106C49.2354 56.933 48.8624 58.399 48.7226 59.8948C48.5827 61.3917 48.6773 62.8988 49.0748 63.6013C49.1311 63.7008 49.1926 63.781 49.2587 63.8382C49.8493 64.3483 51.3897 64.698 52.9573 64.7914C54.4454 64.8798 55.9383 64.7354 56.6437 64.2755C56.7358 64.2152 56.8248 64.1249 56.9099 64.0095C57.4625 63.2583 57.7731 61.5882 57.8567 59.9612C57.9399 58.3394 57.7997 56.7834 57.4503 56.2463C57.4197 56.2001 57.39 56.1659 57.3622 56.1453C56.9194 55.8198 55.2847 55.6111 53.6241 55.5997Z" fill="#244B8A"/>
</g>
<g id="Group_9">
<path id="Vector_12" fill-rule="evenodd" clip-rule="evenodd" d="M65.3039 74.7815C65.3119 74.7837 68.0925 75.5548 72.5628 75.6181L72.5576 76.0683C68.0288 76.0043 65.1937 75.2182 65.1858 75.2157L65.3039 74.7815ZM66.0509 79.9419C66.0726 79.9376 73.084 78.4939 76.0809 80.9477C76.1681 81.019 76.2706 81.0472 76.382 81.0297C77.4475 80.8639 78.4683 80.9177 79.6917 80.9829C80.9277 81.0484 82.3747 81.1255 84.2955 80.9893L84.3671 80.9844L84.3971 81.4343L84.3273 81.4392C82.383 81.5769 80.9188 81.4991 79.6688 81.4327C78.7869 81.3859 78.0133 81.3449 77.2523 81.3923C77.1173 81.4006 77.0053 81.4719 76.9405 81.5906C76.8756 81.7094 76.8762 81.8422 76.9423 81.9603C77.3976 82.7764 77.1856 83.3569 76.6507 83.7366C76.0959 84.1304 75.1641 84.27 74.326 84.2155C73.46 84.1589 72.6706 83.8853 72.4469 83.4597C72.2333 83.053 72.449 82.5668 73.4013 82.0665C73.9157 81.796 74.3915 81.586 74.8432 81.4242C74.9919 81.3709 75.0886 81.2406 75.0962 81.0827C75.1039 80.9248 75.0206 80.7859 74.8777 80.7182C71.7342 79.232 66.1583 80.3789 66.1393 80.3825L66.0509 79.9419ZM76.3823 81.9187C76.3343 81.851 76.2835 81.7856 76.2299 81.7222C76.1345 81.609 75.9931 81.5625 75.849 81.5968C75.1611 81.7605 74.4368 82.0313 73.6106 82.4655C72.9456 82.8149 72.7535 83.076 72.845 83.2501C72.9925 83.5307 73.6305 83.7189 74.3535 83.766C75.1042 83.8149 75.9239 83.7002 76.3891 83.37C76.7783 83.0937 76.8857 82.6271 76.3823 81.9187ZM85.6973 80.8914C90.5951 80.5524 95.1866 80.273 95.1998 80.2721L95.2261 80.7219C95.213 80.7225 90.6542 81.0004 85.7273 81.3412L85.6973 80.8914ZM100.705 75.5557C100.709 75.5536 102.158 74.7479 103.09 75.899L102.741 76.183C102.047 75.3262 100.921 75.9511 100.918 75.9526L100.705 75.5557ZM74.6623 75.594C75.3291 75.5698 76.0323 75.5272 76.7709 75.463C77.505 75.3993 78.2599 75.3146 79.032 75.2056C79.6804 75.1141 80.3417 75.019 80.9457 74.9321C87.2013 74.0321 87.3754 74.0073 92.2334 75.597C97.3877 77.2837 99.2044 76.011 99.2096 76.0077L99.4618 76.3801C99.456 76.384 97.4581 77.7812 92.0942 76.0257C87.3359 74.4685 87.1642 74.4933 81.0097 75.3785C80.4494 75.459 79.8401 75.5471 79.0941 75.6521C78.304 75.7638 77.5421 75.8495 76.8101 75.9128C76.0831 75.9758 75.3707 76.0184 74.6785 76.0435L74.6623 75.594Z" fill="#244B8A"/>
<path id="Vector_13" fill-rule="evenodd" clip-rule="evenodd" d="M48.9885 73.6695C49.7113 73.2607 51.2789 73.0933 52.8276 73.1037C54.5699 73.1157 56.3157 73.3571 56.8303 73.7359C56.9038 73.7901 56.9702 73.8635 57.0292 73.9538C57.4295 74.5682 57.596 76.2332 57.5084 77.9385C57.4209 79.6396 57.0831 81.4043 56.4754 82.2302C56.3591 82.3884 56.2309 82.516 56.0907 82.6075C55.3007 83.1228 53.7036 83.2892 52.1326 83.1956C50.4793 83.0971 48.8318 82.7081 48.1656 82.1329C48.0604 82.042 47.9671 81.922 47.8854 81.7776C47.4413 80.9939 47.3287 79.3844 47.4762 77.8082C47.6237 76.2304 48.0335 74.6649 48.6341 73.9697C48.7443 73.8427 48.8627 73.7408 48.9885 73.6695ZM52.826 73.5539C51.3435 73.5438 49.8606 73.6937 49.2109 74.0612C49.1311 74.1065 49.0521 74.1756 48.975 74.2647C48.4377 74.8871 48.0647 76.3531 47.9248 77.8489C47.785 79.3458 47.8795 80.8529 48.2773 81.5554C48.333 81.6546 48.3942 81.7345 48.4609 81.792C49.0515 82.3021 50.5919 82.6518 52.1596 82.7452C53.6479 82.8336 55.1406 82.6892 55.8459 82.2293C55.938 82.169 56.0271 82.079 56.1122 81.9633C56.6648 81.2121 56.9754 79.542 57.0589 77.9153C57.1422 76.2932 57.002 74.7375 56.6526 74.2004C56.622 74.1542 56.5926 74.12 56.5644 74.0994C56.121 73.7739 54.4864 73.5652 52.826 73.5539Z" fill="#244B8A"/>
</g>
<g id="Group_10">
<path id="Vector_14" fill-rule="evenodd" clip-rule="evenodd" d="M64.9818 94.8323C65.0057 94.8347 73.19 95.6909 83.7883 95.2139C94.4352 94.7344 96.3701 95.2178 96.3759 95.2191L96.2737 95.6585C96.2682 95.6573 94.3893 95.1872 83.8075 95.6637C73.1774 96.1423 64.9616 95.2827 64.9377 95.2803L64.9818 94.8323ZM65.0583 99.9951L71.6566 100.091L71.6514 100.54L65.0534 100.445L65.0583 99.9951Z" fill="#244B8A"/>
<path id="Vector_15" fill-rule="evenodd" clip-rule="evenodd" d="M48.3147 91.0501C49.0374 90.6413 50.6051 90.4739 52.1537 90.4843C53.8961 90.4963 55.6418 90.7377 56.1565 91.1165C56.2293 91.1701 56.2957 91.2438 56.3554 91.3353C56.7557 91.9489 56.9221 93.6138 56.8346 95.3188C56.7471 97.0199 56.4093 98.7846 55.8016 99.6108C55.6853 99.769 55.5571 99.8966 55.4169 99.9878C54.6268 100.503 53.0298 100.67 51.4588 100.576C49.8055 100.477 48.158 100.088 47.4918 99.5132C47.3866 99.4223 47.2932 99.3023 47.2115 99.1579C46.7675 98.3739 46.6549 96.7647 46.8024 95.1885C46.9499 93.6107 47.3596 92.0455 47.9603 91.35C48.0705 91.2233 48.1889 91.1214 48.3147 91.0501ZM52.1519 90.9345C50.6693 90.9244 49.1868 91.0743 48.5368 91.4421C48.4569 91.4874 48.378 91.5566 48.3009 91.6456C47.7635 92.2677 47.3905 93.7341 47.2507 95.2298C47.1108 96.7267 47.2054 98.2341 47.6029 98.9367C47.6586 99.0358 47.7198 99.1157 47.7865 99.1732C48.3774 99.6833 49.9175 100.033 51.4851 100.127C52.9735 100.215 54.4665 100.071 55.1715 99.6108C55.2636 99.5505 55.3527 99.4602 55.4377 99.3449C55.9901 98.594 56.301 96.9235 56.3845 95.2965C56.4677 93.6741 56.3276 92.1175 55.9778 91.581C55.9481 91.5358 55.9188 91.5018 55.89 91.4804C55.4472 91.1545 53.8126 90.9458 52.1519 90.9345Z" fill="#244B8A"/>
</g>
<g id="Group_11">
<path id="Vector_16" fill-rule="evenodd" clip-rule="evenodd" d="M67.4208 40.8162C67.4446 40.8186 75.6289 41.6751 86.2272 41.1977C96.8742 40.7182 98.809 41.2017 98.8148 41.2029L98.7126 41.6424C98.7071 41.6411 96.8283 41.1711 86.2465 41.6476C75.6161 42.1261 67.4006 41.2666 67.3767 41.2641L67.4208 40.8162ZM78.5739 46.206C78.5944 46.2048 85.7652 45.7746 88.0345 46.0644L87.9779 46.5108C85.7526 46.2269 78.6207 46.6549 78.6002 46.6562L78.5739 46.206ZM67.4973 45.979L74.0956 46.0745L74.0903 46.5246L67.4921 46.4288L67.4973 45.979Z" fill="#244B8A"/>
<g id="Group_12">
<path id="Vector_17" fill-rule="evenodd" clip-rule="evenodd" d="M50.5032 39.9606C51.226 39.5518 52.7937 39.3844 54.3423 39.3951C56.0847 39.4071 57.8304 39.6485 58.3451 40.0273C58.4185 40.0815 58.485 40.1549 58.544 40.2452C58.9443 40.8597 59.1107 42.5246 59.0229 44.2299C58.9354 45.931 58.5976 47.6957 57.9898 48.5216C57.8736 48.6798 57.7453 48.8074 57.6052 48.8986C56.8151 49.4139 55.2181 49.5803 53.6474 49.4867C51.9941 49.3882 50.3463 48.9993 49.6804 48.424C49.5745 48.3325 49.4809 48.2125 49.3998 48.069C48.9561 47.285 48.8438 45.6755 48.991 44.0993C49.1385 42.5215 49.5485 40.956 50.1489 40.2608C50.2594 40.1335 50.3775 40.0316 50.5032 39.9606ZM54.3408 39.845C52.8582 39.8349 51.3757 39.9848 50.7257 40.3523C50.6458 40.3976 50.5669 40.4664 50.4898 40.5558C49.9521 41.1779 49.5794 42.6442 49.4393 44.1403C49.2994 45.6372 49.394 47.1446 49.7918 47.8472C49.8481 47.9466 49.9093 48.0268 49.9754 48.0837C50.566 48.5938 52.1064 48.9436 53.674 49.0369C55.1621 49.1253 56.6551 48.9809 57.3601 48.521C57.4522 48.4607 57.5412 48.3704 57.6263 48.2551C58.179 47.5038 58.4895 45.8337 58.5731 44.207C58.6563 42.5849 58.5162 41.0292 58.1667 40.4921C58.1358 40.4462 58.1064 40.4117 58.0786 40.3912C57.6361 40.065 56.0015 39.8563 54.3408 39.845Z" fill="#244B8A"/>
<path id="Vector_18" fill-rule="evenodd" clip-rule="evenodd" d="M51.8912 42.36C52.5616 43.2513 53.2321 44.1427 53.9025 45.0341C55.4944 42.8086 57.7024 41.1271 60.5691 40.304C60.8558 41.0956 61.07 41.5934 61.5492 42.7186C58.3683 43.6348 56.1559 44.711 53.8037 47.0935C52.7758 45.8664 51.4371 44.5913 50.4089 43.364C50.9031 43.0292 51.3973 42.6944 51.8912 42.36Z" fill="#244B8A"/>
</g>
</g>
</g>
</g>
<g id="Group_13">
<g id="Group_14">
<g id="Group_15">
<path id="Vector_19" fill-rule="evenodd" clip-rule="evenodd" d="M32.4526 60.6677L36.3066 62.892L37.9765 117.278L30.1343 117.056L22.6006 67.4098C22.6006 67.4098 26.0593 61.5435 32.4526 60.6677Z" fill="#222222"/>
<path id="Vector_20" fill-rule="evenodd" clip-rule="evenodd" d="M29.7949 114.596C29.7949 114.596 31.204 116.816 33.3194 116.966C35.4348 117.115 37.8736 114.13 37.8736 114.13C37.8736 114.13 43.5643 115.111 44.3531 116.802C45.1417 118.493 45.4183 120.744 45.4183 120.744L28.0191 120.697C27.8101 118.072 28.8558 115.788 29.7949 114.596Z" fill="#222222"/>
</g>
<g id="Group_16">
<path id="Vector_21" fill-rule="evenodd" clip-rule="evenodd" d="M31.0806 63.9421C31.0806 63.9421 32.8995 71.6668 26.9236 74.6482L17.7446 117.208L9.50122 117.182C10.0554 112.609 13.885 68.3439 14.4272 65.0284C19.2339 64.5202 31.0806 63.9421 31.0806 63.9421Z" fill="#222222"/>
<path id="Vector_22" fill-rule="evenodd" clip-rule="evenodd" d="M19.3709 109.668L17.7448 117.208L9.50146 117.182C9.61468 116.247 9.8653 113.651 10.1961 110.087C11.847 114.189 14.8167 117.686 19.3709 109.668Z" fill="#2B2235"/>
<path id="Vector_23" fill-rule="evenodd" clip-rule="evenodd" d="M16.4601 76.4772C16.1963 80.9592 15.9237 86.3353 16.0396 87.7487C16.0589 87.9843 16.0751 88.1676 16.0926 88.3619C16.2018 89.5951 16.3426 91.1854 16.237 92.5202C16.1112 94.1098 15.6366 95.3436 14.3563 95.2332C13.8116 95.1864 13.5111 95.2166 13.3832 95.2925C13.3367 95.3201 13.3254 95.3562 13.3401 95.3969C13.3646 95.4642 13.4362 95.5456 13.5384 95.6322C13.9169 95.9526 14.6755 96.3066 15.1385 96.3755C16.3557 96.5569 14.427 97.2072 14.0877 97.317L12.5641 112.272L12.4077 112.255L13.9423 97.1913L13.9922 97.1757C13.9971 97.1741 15.7324 96.6298 15.1161 96.538C14.6305 96.4654 13.8352 96.0952 13.4389 95.7595C13.3156 95.6551 13.2275 95.5511 13.1926 95.455C13.1479 95.332 13.177 95.2264 13.3052 95.1502C13.4591 95.0588 13.7902 95.0199 14.3689 95.0698C15.5277 95.1695 15.961 94.0055 16.0797 92.507C16.1844 91.1836 16.0445 89.6031 15.9362 88.3772L15.8826 87.7628C15.8043 86.8093 15.9016 84.0685 16.0537 81.0118C16.1296 79.4879 16.1908 77.8827 16.3172 76.297C21.0069 76.8667 21.0993 73.6651 21.0999 73.6559L21.7 73.6629C21.6994 73.6721 21.1596 76.9738 16.4601 76.4772Z" fill="#2B2235"/>
<path id="Vector_24" fill-rule="evenodd" clip-rule="evenodd" d="M15.0572 115.272C11.5611 115.568 8.83436 116.501 7.85547 121.018L19.8467 120.747C19.4507 118.293 17.8497 115.035 15.0572 115.272Z" fill="#222222"/>
<path id="Vector_25" fill-rule="evenodd" clip-rule="evenodd" d="M31.0806 63.8066C31.0806 63.8066 31.4315 65.2363 31.3183 67.0815C26.93 68.9777 17.7503 72.4655 13.8601 70.3566C14.1196 67.4866 14.3213 65.4691 14.4271 64.8477C19.2338 64.3608 31.0806 63.8066 31.0806 63.8066Z" fill="#2B2235"/>
</g>
</g>
<g id="Group_17">
<path id="Vector_26" fill-rule="evenodd" clip-rule="evenodd" d="M15.2656 30.0197L14.1729 30.8768C10.8096 33.7278 2.89555 36.9551 4.73339 40.9775C4.73339 40.9775 16.5658 52.8139 13.3586 66.9502C13.3586 66.9502 20.9918 70.4588 36.4218 63.5995C36.4218 63.5995 37.8059 50.9904 33.1247 37.5231C33.1247 37.5231 27.0047 32.2773 22.6956 31.3783L15.2656 30.0197Z" fill="#244B8A"/>
<path id="Vector_27" fill-rule="evenodd" clip-rule="evenodd" d="M15.2657 30.0197L14.173 30.8768C13.7066 31.2721 13.1524 31.6748 12.5493 32.0858C14.5138 34.2143 22.1608 34.7911 24.6262 32.0007C23.9613 31.7235 23.3101 31.5068 22.696 31.3786L15.2657 30.0197Z" fill="white"/>
<path id="Vector_28" fill-rule="evenodd" clip-rule="evenodd" d="M7.92383 44.9109C11.1687 49.5355 15.445 57.7555 13.3587 66.9505C13.3587 66.9505 20.9919 70.4591 36.4219 63.6001C36.4219 63.6001 36.7775 60.3538 36.5174 55.3978C35.7707 57.4584 36.4733 58.6488 32.2248 59.9945C23.3768 60.6127 21.8637 51.7228 21.8637 51.7228C21.516 50.4021 20.2198 53.8072 23.0773 57.3565C25.9347 60.9058 29.4595 60.303 32.0082 60.0619C30.8913 60.3976 34.7811 60.1901 28.1367 60.7761C21.4922 61.3624 10.3578 43.7322 10.3578 43.7322L7.92383 44.9109Z" fill="white"/>
</g>
<g id="Group_18">
<g id="Group_19">
<path id="Vector_29" fill-rule="evenodd" clip-rule="evenodd" d="M10.7997 14.5596C10.7997 14.5596 7.3872 8.40227 7.34619 5.80983C7.30519 3.2174 8.99217 6.18009 8.99217 6.18009C8.99217 6.18009 9.56837 3.79329 10.7205 3.46404C11.8725 3.13478 10.7205 4.94538 10.7205 4.94538C10.7205 4.94538 17.2637 0.0484654 22.9424 2.22933C28.6211 4.41019 30.6377 2.88784 29.6912 1.94138C28.7448 0.994924 27.716 2.0647 28.0863 2.84653C28.0863 2.84653 26.2757 1.94138 27.5924 0.706672C28.8207 -0.445112 35.6692 5.70885 29.3341 10.5158C29.4293 11.8726 29.1279 13.7101 27.1407 14.7395C25.503 15.5881 25.1526 14.2796 25.5709 12.6783C17.9977 16.4761 13.5895 16.645 10.7997 14.5596Z" fill="black"/>
<path id="Vector_30" fill-rule="evenodd" clip-rule="evenodd" d="M7.53843 7.06231C7.42185 6.59383 7.35178 6.16757 7.34596 5.80955C7.30465 3.21712 8.99193 6.17981 8.99193 6.17981C8.99193 6.17981 9.56813 3.79301 10.7205 3.46375C11.8726 3.1345 10.7205 4.9451 10.7205 4.9451C10.7205 4.9451 17.2637 0.0481796 22.9425 2.22904C23.5554 2.46436 24.1252 2.65652 24.6536 2.81105C26.4615 3.92428 26.3229 6.18868 24.2038 7.20399C23.9566 7.32241 23.6879 7.43165 23.4027 7.53355C24.0432 7.53141 25.4321 7.40166 26.2054 6.38544C27.2332 5.03475 26.4394 3.94998 25.8825 3.6602C25.8825 3.6602 28.1656 4.65225 27.568 6.52895C27.0603 8.12321 24.1631 7.7248 23.3029 7.56874C20.1533 8.65871 15.0376 8.85976 12.9727 9.93565C9.57823 11.7046 9.96042 8.30987 9.96042 8.30987C9.31415 9.72665 8.3325 8.53448 7.53843 7.06231ZM30.9138 4.79393C30.8538 10.3221 27.9792 8.8469 27.9792 8.8469C32.5754 8.75694 30.9138 4.79393 30.9138 4.79393Z" fill="black"/>
</g>
<g id="Group_20">
<path id="Vector_31" fill-rule="evenodd" clip-rule="evenodd" d="M12.9741 17.607C12.9741 17.607 14.6972 24.7347 14.1727 30.9079C14.603 31.7687 19.4622 33.5649 22.6957 31.4281C22.6957 31.4281 23.622 22.4997 21.6159 19.5523C19.6097 16.6049 16.8361 16.8053 12.9741 17.607Z" fill="#E79A6D"/>
<g id="Group_21">
<path id="Vector_32" fill-rule="evenodd" clip-rule="evenodd" d="M22.8349 29.5364C22.9858 26.7497 23.0396 21.6444 21.6155 19.5522C20.1859 17.4519 17.7113 16.8047 15.0093 16.8959L13.1482 21.544C13.1482 21.544 18.1189 29.7855 22.8349 29.5364Z" fill="#C65A45"/>
</g>
</g>
<g id="Group_22">
<g id="Group_23">
<path id="Vector_33" fill-rule="evenodd" clip-rule="evenodd" d="M28.6539 12.5107C29.1692 15.9933 29.6738 22.1329 27.82 26.6026C27.1649 27.4668 14.8371 29.8915 13.1155 21.4144L12.8095 19.3911C9.90342 21.9315 6.79141 13.6585 10.4169 12.4027C12.1987 11.7855 12.5127 14.5836 12.5127 14.5836C12.5127 14.5836 14.4264 13.5548 14.7297 10.7564C14.7297 10.7564 21.1205 9.15848 26.5648 9.60952C26.5982 9.6135 26.6343 9.61656 26.6731 9.61901C26.7059 9.62176 26.7386 9.62452 26.7711 9.62758C28.1471 9.7971 28.6318 12.3883 28.6539 12.5107Z" fill="#E79A6D"/>
<path id="Vector_34" fill-rule="evenodd" clip-rule="evenodd" d="M12.5127 14.5835C12.5127 14.5835 14.4264 13.5547 14.7297 10.7567C14.7297 10.7564 15.7125 13.544 12.5127 14.5835ZM14.7297 10.7567C19.5681 10.0241 24.9641 10.4002 28.0523 10.7368C27.7576 10.1832 27.3408 9.69761 26.7711 9.62723C26.7383 9.62417 26.7056 9.62142 26.6732 9.61867C26.6346 9.61622 26.5982 9.61316 26.5648 9.60918C21.1208 9.15844 14.7297 10.7567 14.7297 10.7567Z" fill="#C65A45"/>
<path id="Vector_35" fill-rule="evenodd" clip-rule="evenodd" d="M12.8094 19.3911C10.5285 21.3853 8.1212 16.7176 8.94434 14.0098C10.7412 13.2937 11.8752 16.3124 11.8752 16.3124C10.1925 15.6949 10.2014 18.3993 12.6983 18.3289L12.8094 19.3911Z" fill="#C65A45"/>
</g>
<path id="Vector_36" fill-rule="evenodd" clip-rule="evenodd" d="M14.9074 10.3331C14.9074 10.3331 24.1663 8.83739 26.7177 10.7542C26.7177 10.7542 21.6935 9.67032 14.9074 10.3331ZM14.5784 9.72571C14.5784 9.72571 15.4015 12.853 13.3645 13.8613C13.3645 13.8613 15.1341 14.6021 14.5784 9.72571Z" fill="black"/>
<g id="Group_24">
<path id="Vector_37" fill-rule="evenodd" clip-rule="evenodd" d="M19.9873 18.0404C20.7343 18.0404 21.3399 18.1986 21.3399 18.3938C21.3399 18.5891 20.7343 18.7473 19.9873 18.7473C19.2404 18.7473 18.6345 18.5891 18.6345 18.3938C18.6345 18.1986 19.2404 18.0404 19.9873 18.0404ZM27.2212 18.0187C27.865 18.0187 28.387 18.1769 28.387 18.3721C28.387 18.5673 27.865 18.7255 27.2212 18.7255C26.5774 18.7255 26.0553 18.5673 26.0553 18.3721C26.0553 18.1769 26.5774 18.0187 27.2212 18.0187Z" fill="#C65A45"/>
<path id="Vector_38" fill-rule="evenodd" clip-rule="evenodd" d="M23.2346 18.7136C23.5296 19.0374 26.357 19.5704 25.9023 18.3767C25.9023 18.3767 26.0859 20.116 24.8399 20.191C23.5939 20.2656 23.2346 18.7136 23.2346 18.7136Z" fill="#C65A45"/>
<g id="Group_25">
<path id="Vector_39" fill-rule="evenodd" clip-rule="evenodd" d="M26.2279 21.8706C26.2279 21.8706 20.4873 21.5618 20.0758 22.1175C19.6642 22.6732 20.1991 25.6977 23.2031 25.6977C26.2071 25.6977 27.5651 22.7142 26.2279 21.8706Z" fill="#C65A45"/>
<path id="Vector_40" fill-rule="evenodd" clip-rule="evenodd" d="M20.4656 24.2947C20.9488 25.0474 21.8104 25.6977 23.2031 25.6977C23.233 25.6977 23.2627 25.6967 23.2924 25.6961C23.0663 24.8834 22.4035 23.8259 20.4656 24.2947Z" fill="#AC4836"/>
<path id="Vector_41" fill-rule="evenodd" clip-rule="evenodd" d="M26.2278 21.8706C26.2278 21.8706 21.7639 21.6307 20.4272 21.955C20.5102 22.2607 20.6479 22.6178 20.8679 22.8479C21.3205 23.3213 25.0858 23.3623 25.7853 23.0126C26.1828 22.814 26.3278 22.3498 26.3789 21.9859C26.3327 21.944 26.2829 21.9054 26.2278 21.8706Z" fill="white"/>
</g>
<g id="Group_26">
<g id="Group_27">
<path id="Vector_42" fill-rule="evenodd" clip-rule="evenodd" d="M18.6482 13.7484H21.8829C21.8829 13.7484 21.5475 12.622 20.3444 12.6649C19.1415 12.7074 18.6482 13.7484 18.6482 13.7484Z" fill="#462C46"/>
<path id="Vector_43" fill-rule="evenodd" clip-rule="evenodd" d="M24.8132 13.7484H28.048C28.048 13.7484 27.7126 12.622 26.5097 12.6649C25.3062 12.7074 24.8132 13.7484 24.8132 13.7484Z" fill="#462C46"/>
</g>
<g id="Group_28">
<g id="Group_29">
<path id="Vector_44" fill-rule="evenodd" clip-rule="evenodd" d="M21.7361 16.174C21.7361 16.174 21.4549 14.6299 20.4934 14.6743C19.532 14.7183 18.4028 16.1847 18.4028 16.1847C18.4028 16.1847 19.823 16.901 21.7361 16.174Z" fill="white"/>
<path id="Vector_45" fill-rule="evenodd" clip-rule="evenodd" d="M21.4765 15.5354C21.3419 15.2667 21.1573 14.9785 20.9318 14.8123C20.8232 14.7615 20.7038 14.7312 20.5787 14.7273C20.075 14.7111 19.6665 15.1217 19.6665 15.6444C19.6665 16.0076 19.8636 16.3292 20.153 16.4975C20.4869 16.4868 20.8575 16.4387 21.2556 16.3304C21.4018 16.1673 21.4909 15.9476 21.4909 15.7034C21.4909 15.6462 21.486 15.5902 21.4765 15.5354Z" fill="#462C46"/>
<path id="Vector_46" fill-rule="evenodd" clip-rule="evenodd" d="M18.4028 16.1847C19.1094 15.2753 21.334 14.301 21.7361 16.1743C21.7361 16.1743 21.8594 14.5265 20.5825 14.4308C19.3052 14.335 18.6938 15.3261 18.4028 16.1847Z" fill="#462C46"/>
<path id="Vector_47" fill-rule="evenodd" clip-rule="evenodd" d="M19.7315 15.9586C19.935 15.9586 20.1012 15.8668 20.1012 15.7539C20.1012 15.6413 19.935 15.5492 19.7315 15.5492C19.528 15.5492 19.3616 15.641 19.3616 15.7539C19.3616 15.8668 19.5277 15.9586 19.7315 15.9586Z" fill="white"/>
</g>
<g id="Group_30">
<path id="Vector_48" fill-rule="evenodd" clip-rule="evenodd" d="M27.9712 16.174C27.9712 16.174 27.69 14.6299 26.7285 14.6743C25.7671 14.7183 24.6379 16.1847 24.6379 16.1847C24.6379 16.1847 26.0581 16.901 27.9712 16.174Z" fill="white"/>
<path id="Vector_49" fill-rule="evenodd" clip-rule="evenodd" d="M27.7116 15.5354C27.5767 15.2667 27.3924 14.9785 27.1669 14.8123C27.0583 14.7615 26.939 14.7312 26.8138 14.7273C26.3101 14.7111 25.9016 15.1217 25.9016 15.6444C25.9016 16.0076 26.0987 16.3292 26.3882 16.4975C26.722 16.4868 27.0926 16.4387 27.4907 16.3304C27.6369 16.1673 27.726 15.9476 27.726 15.7034C27.726 15.6462 27.7211 15.5902 27.7116 15.5354Z" fill="#462C46"/>
<path id="Vector_50" fill-rule="evenodd" clip-rule="evenodd" d="M24.6379 16.1847C25.3445 15.2753 27.5691 14.301 27.9712 16.1743C27.9712 16.1743 28.0945 14.5265 26.8176 14.4308C25.5403 14.335 24.9289 15.3261 24.6379 16.1847Z" fill="#462C46"/>
<path id="Vector_51" fill-rule="evenodd" clip-rule="evenodd" d="M25.9663 15.9586C26.1698 15.9586 26.336 15.8668 26.336 15.7539C26.336 15.6413 26.1698 15.5492 25.9663 15.5492C25.7625 15.5492 25.5967 15.641 25.5967 15.7539C25.5967 15.8668 25.7628 15.9586 25.9663 15.9586Z" fill="white"/>
</g>
</g>
<path id="Vector_52" fill-rule="evenodd" clip-rule="evenodd" d="M20.2777 12.9688C21.6296 12.9688 22.749 13.9642 22.9433 15.2619C23.4148 14.9743 23.804 15.0774 24.0458 15.2127C24.2168 13.8889 25.3484 12.8666 26.7187 12.8666C28.2074 12.8666 29.4139 14.0734 29.4139 15.5618C29.4139 17.0502 28.2071 18.2571 26.7187 18.2571C25.23 18.2571 24.0234 17.0502 24.0234 15.5618L24.0241 15.5227C23.6663 15.3669 23.2061 15.5101 22.9726 15.6044C22.9729 15.6243 22.9732 15.6441 22.9732 15.664C22.9732 17.1527 21.7664 18.3593 20.278 18.3593C18.7893 18.3593 17.5828 17.1524 17.5828 15.664C17.5828 15.6313 17.5834 15.5989 17.5846 15.5667L12.6023 14.5425L12.6133 14.2607L17.658 15.03C17.9429 13.8473 19.0075 12.9688 20.2777 12.9688ZM26.8212 13.2368C25.5256 13.2368 24.4757 14.287 24.4757 15.5823C24.4757 16.8779 25.5259 17.9278 26.8212 17.9278C28.1165 17.9278 29.1667 16.8776 29.1667 15.5823C29.167 14.2867 28.1168 13.2368 26.8212 13.2368ZM20.3805 13.339C19.0849 13.339 18.035 14.3892 18.035 15.6845C18.035 16.9801 19.0852 18.03 20.3805 18.03C21.6758 18.03 22.726 16.9798 22.726 15.6845C22.7263 14.3892 21.6761 13.339 20.3805 13.339Z" fill="white"/>
</g>
</g>
</g>
</g>
<g id="Group_31">
<g id="Group_32">
<path id="Vector_53" fill-rule="evenodd" clip-rule="evenodd" d="M8.99385 48.9414L10.1 50.5699C10.1 50.5699 9.77171 52.7312 5.56421 53.2811C1.35671 53.831 0.697276 52.632 0.891892 51.6195C0.891892 51.6195 3.89069 44.3881 8.99385 48.9414Z" fill="#462C46"/>
<path id="Vector_54" fill-rule="evenodd" clip-rule="evenodd" d="M9.16001 49.8918L8.29311 58.5602L1.80591 59.8093C1.80591 59.8093 1.53632 54.4714 2.72116 49.2706C5.23495 43.1595 9.16001 49.8918 9.16001 49.8918Z" fill="#C65A45"/>
<path id="Vector_55" fill-rule="evenodd" clip-rule="evenodd" d="M10.0854 42.8918C8.44062 39.6412 5.28852 37.2069 4.10307 40.0748C2.91763 42.9426 1.75452 46.9286 0.891602 51.6198C3.64101 48.2646 7.22152 48.2906 10.1001 50.5703C10.6288 46.9674 10.698 44.1023 10.0854 42.8918Z" fill="#244B8A"/>
</g>
<g id="Group_33">
<g id="Group_34">
<path id="Vector_56" fill-rule="evenodd" clip-rule="evenodd" d="M4.01678 56.0878C8.43358 53.6444 14.597 55.2735 24.9258 52.9804L29.05 51.0269C29.05 51.0269 30.1271 54.1897 29.7453 57.074C29.7453 57.074 26.5705 57.6138 25.7599 56.9443C25.7599 56.9443 11.3473 61.1154 6.71172 61.9061C2.07643 62.6968 -0.399718 58.5312 4.01678 56.0878Z" fill="#E79A6D"/>
<path id="Vector_57" fill-rule="evenodd" clip-rule="evenodd" d="M28.1121 52.6954L29.0503 51.0268C29.0503 51.0268 30.8443 50.7744 32.5298 50.6529C34.2155 50.5311 34.2504 52.2166 32.6216 52.3133C30.9924 52.41 28.1121 52.6954 28.1121 52.6954Z" fill="#E79A6D"/>
<path id="Vector_58" fill-rule="evenodd" clip-rule="evenodd" d="M28.5039 53.9121L29.4595 53.5994C29.4595 53.5994 32.7613 53.8775 33.074 54.1033C33.3867 54.3292 33.3867 55.0593 32.9002 55.1982C32.4137 55.3371 32.1704 55.3371 32.1704 55.3371C32.1704 55.3371 31.7882 56.4146 31.4231 56.5189C31.0581 56.6233 29.7453 57.0743 29.7453 57.0743L28.5039 53.9121Z" fill="#E79A6D"/>
<path id="Vector_59" fill-rule="evenodd" clip-rule="evenodd" d="M28.8518 52.4706L33.9085 52.3488C34.3145 52.339 34.7423 53.6814 33.8041 53.6869L29.1098 53.7139L28.8518 52.4706Z" fill="#E79A6D"/>
<path id="Vector_60" fill-rule="evenodd" clip-rule="evenodd" d="M19.4271 54.0127C19.4197 54.0149 16.95 54.7058 12.7122 54.5427C10.6066 54.4616 8.81498 54.4567 7.25009 54.7811C5.69378 55.1036 4.35778 55.7539 3.15245 56.9828L3.02393 56.8564C4.2568 55.599 5.62278 54.9341 7.21398 54.6045C8.79661 54.2765 10.6002 54.2811 12.7183 54.3628C16.9289 54.525 19.3726 53.8411 19.3796 53.8392L19.4271 54.0127Z" fill="white"/>
</g>
<g id="Group_35">
<g id="Group_36">
<path id="Vector_61" fill-rule="evenodd" clip-rule="evenodd" d="M21.2787 53.7444C22.4553 53.7444 23.4091 54.6982 23.4091 55.8748C23.4091 56.7368 22.8968 57.4791 22.1603 57.8145L22.2101 58.0777L21.2108 58.3157L21.1489 58.0008C20.033 57.9338 19.1489 57.0076 19.1489 55.8748C19.1486 54.6982 20.1021 53.7444 21.2787 53.7444Z" fill="#462C46"/>
<path id="Vector_62" fill-rule="evenodd" clip-rule="evenodd" d="M21.1614 57.5073C22.3346 57.5073 23.2917 56.5504 23.2917 55.3772C23.2917 54.204 22.3349 53.2468 21.1614 53.2468C19.9882 53.2468 19.031 54.204 19.031 55.3772C19.0313 56.5504 19.9882 57.5073 21.1614 57.5073Z" fill="#462C46"/>
</g>
<g id="Group_37">
<path id="Vector_63" fill-rule="evenodd" clip-rule="evenodd" d="M21.1615 57.1651C22.1462 57.1651 22.9495 56.3622 22.9495 55.3772C22.9495 54.3922 22.1465 53.5892 21.1615 53.5892C20.1768 53.5892 19.3735 54.3925 19.3735 55.3772C19.3735 56.3619 20.1768 57.1651 21.1615 57.1651Z" fill="#244B8A"/>
<path id="Vector_64" fill-rule="evenodd" clip-rule="evenodd" d="M21.3161 57.1651C22.2157 57.1651 22.9495 56.4313 22.9495 55.5317C22.9495 54.632 22.2157 53.8979 21.3161 53.8979C20.4165 53.8979 19.6824 54.6317 19.6824 55.5317C19.6824 56.4313 20.4162 57.1651 21.3161 57.1651Z" fill="white"/>
</g>
<path id="Vector_65" fill-rule="evenodd" clip-rule="evenodd" d="M21.9067 54.126L21.3259 55.2548C21.3517 55.2891 21.3666 55.3316 21.3666 55.3775C21.3666 55.3989 21.3636 55.4194 21.3575 55.439L21.8786 55.9329L21.7543 56.0635L21.2332 55.5697C21.2109 55.5779 21.1867 55.5825 21.1616 55.5825C21.0484 55.5825 20.9563 55.4907 20.9563 55.3775C20.9563 55.2643 21.0481 55.1722 21.1616 55.1722H21.1659L21.7467 54.0433L21.9067 54.126Z" fill="#462C46"/>
</g>
</g>
</g>
</g>
</g>
</svg>
